<svg version="1" xmlns="http://www.w3.org/2000/svg" width="480" height="533.333" viewBox="0 0 360.000000 400.000000"><path d="M233.2 16.45a7.97 7.97 0 0 0-6.25 6.2c-.09.44-.17.8-.18.81-.01.01-.63.27-1.37.57-19.19 7.86-34.72 23.61-42.33 42.92-1.97 5.02-3.53 10.67-4.37 15.82-.07.4-.15.73-.19.73-.04 0-.88-.31-1.87-.69-18.27-7.03-38.25-9.66-57.84-7.61-32.37 3.4-61.79 19.1-82.79 44.2-16.08 19.21-25.93 42.83-28.35 67.95-.65 6.71-.73 14.77-.2 21.5 2.14 27.59 13.04 53.08 31.6 73.83 1.98 2.21 6.95 7.2 9.14 9.16 11.66 10.48 24.86 18.58 39.1 23.99 9.94 3.78 20.14 6.25 30.6 7.41 5.47.61 9.55.8 15.55.73 4.48-.06 5.57-.11 9.3-.42 11.8-1 24-3.89 35.23-8.34l2.02-.81 2.03.81c11.22 4.45 23.42 7.34 35.22 8.34 3.73.31 4.82.36 9.3.42 6 .07 10.08-.12 15.55-.73 24.34-2.71 47.2-12.48 66-28.2 3.15-2.63 5.08-4.41 8.3-7.63 3.16-3.17 5.15-5.34 7.73-8.44 16.53-19.84 26.4-44.21 28.41-70.12.53-6.73.45-14.79-.2-21.5-1.8-18.68-7.69-36.55-17.31-52.48-2.11-3.5-5.24-8.12-7.47-11.01-.51-.67-.74-1.05-.7-1.15.04-.09.33-.93.66-1.86 2.32-6.63 3.66-13.21 4.19-20.55.15-2.12.15-7.87 0-10-.76-10.61-3.37-20.24-8-29.5-8.43-16.87-23.08-30.3-40.52-37.15-1.07-.42-2.04-.8-2.16-.85-.13-.06-.23-.18-.23-.29 0-.11-.13-.57-.29-1.01-1.32-3.6-5.1-5.77-8.83-5.06-3.95.76-6.67 4.19-6.45 8.16.07 1.31.25 1.99.84 3.2.41.82.6 1.08 1.47 1.95.87.87 1.15 1.08 1.96 1.48 1.19.59 1.87.77 3.2.84 2.32.12 4.28-.63 5.98-2.3l.72-.72.52.19c2.2.78 6.87 2.96 9.48 4.43 16.31 9.19 28.46 24.64 33.45 42.56a71.308 71.308 0 0 1 1.89 29.17c-2.86 20-14.14 37.76-31.09 48.96a70.541 70.541 0 0 1-29.9 11.09c-5.19.66-11.35.72-16.56.15-12.72-1.39-24.67-6.09-34.74-13.65-13.04-9.79-22.3-23.67-26.19-39.24-1.42-5.65-2.02-10.19-2.13-16.06-.16-8.99 1.2-17.21 4.24-25.6 6.46-17.83 20.33-32.67 37.68-40.33.99-.44 2.03-.88 2.31-.98l.52-.18.66.61c.74.68 2.13 1.43 3.11 1.69 1.52.4 3.54.26 5.02-.33 1.77-.71 3.43-2.3 4.23-4.07.84-1.85.91-4.02.2-5.99-1.31-3.59-5.17-5.77-8.9-5.02zM136.2 81c11.79.48 22.82 2.5 33.7 6.19 2.12.72 4.06 1.44 6.92 2.57l.98.39-.06 2.8c-.04 1.54-.08 2.81-.09 2.83-.01.01-.8-.31-1.76-.72-9.1-3.85-19.32-6.63-29.09-7.9-5.71-.75-8.4-.91-15-.91-5.48 0-6.78.05-10.55.41-22.88 2.17-44.24 11.05-61.79 25.69-4.78 4-9.62 8.77-13.69 13.53-4.84 5.64-9.62 12.58-13.21 19.13-.53.97-.96 1.79-.96 1.83 0 .03 37.3.06 82.89.06h82.89l2.89 2.87c1.59 1.59 3.46 3.35 4.15 3.93.7.58 1.27 1.08 1.27 1.12.01.05-40.03.08-88.97.08H27.74l-.86 2.17c-1.08 2.7-1.67 4.31-2.51 6.88-.56 1.69-1.58 5.13-1.81 6.07l-.06.28h214.16l2.15.44c2.37.49 4.71.88 6.84 1.14l1.4.17.12.55c2.91 12.61 3.74 26.35 2.37 39.15C247.03 235.2 237.81 257 222.8 275c-2.51 3-3.93 4.54-7.29 7.9-5.27 5.27-9.34 8.74-14.96 12.75-16.64 11.9-36.12 19.25-56.55 21.35-6.84.7-14.89.79-21.65.24-18.31-1.48-35.92-7.13-51.55-16.53-2-1.21-6.64-4.29-8.49-5.64-15.17-11.09-27.4-25.38-35.87-41.92-7.08-13.82-11.33-28.87-12.58-44.55-.54-6.76-.46-14.44.24-21.32 2.33-23.06 11.34-44.83 25.97-62.75 15.39-18.85 36.08-32.49 59.28-39.08 11.92-3.39 24.75-4.94 36.85-4.45zm188.53 49.82c11.86 16.74 19.11 36.1 21.17 56.46.37 3.61.51 6.23.57 10.32.12 8.71-.6 16.66-2.28 25.05-5.82 29.06-22.32 54.74-46.5 72.42-1.85 1.35-6.49 4.43-8.49 5.64-15.63 9.4-33.24 15.05-51.55 16.53-6.76.55-14.81.46-21.65-.24-8.97-.92-18.09-2.93-26.43-5.82l-1.48-.51 1.43-.74c14.96-7.79 28.19-18.61 39.23-32.08 1.32-1.61 4.16-5.38 5.59-7.43 5.1-7.28 9.77-15.91 13.16-24.33 8.59-21.3 11.15-44.44 7.44-67.09-.31-1.88-1.01-5.59-1.2-6.34l-.06-.26h1.75c7.77 0 16.34-1.44 24.02-4.04 3.72-1.25 6.48-2.42 10.15-4.27 13.68-6.91 25.06-17.84 32.56-31.29.51-.92 1.1-2.01 1.3-2.43.21-.42.41-.73.45-.69.04.04.41.55.82 1.14zM20.66 178.47c-.21.73-.96 5.78-1.25 8.43-.2 1.87-.45 4.94-.57 7.17l-.06 1.23h226.13l-.06-1.08c-.25-4.37-.61-8.13-1.15-11.77-.28-1.89-.34-2.25-.61-3.6l-.1-.55H131.85c-105.76 0-111.14.01-111.19.17zm-1.82 26c.3 5.25.74 9.36 1.49 13.78l.32 1.9 111.17.03c105.81.02 111.17.01 111.22-.15.11-.38.77-4.58 1-6.43.37-2.9.57-5.19.81-9.28l.06-1.02H18.78l.06 1.17zm3.66 23.81c0 .14.88 3.19 1.45 5.02.87 2.8 2.28 6.66 3.39 9.34l.43 1.01h208.15l.5-1.2c1.53-3.73 3.12-8.32 4.18-12.03.33-1.18.6-2.16.6-2.18 0-.02-49.21-.04-109.35-.04-60.14 0-109.35.04-109.35.08zm9.36 23.94c1.71 3.4 5.53 9.51 8.34 13.38 5.16 7.1 11.41 13.86 18.08 19.6 6.92 5.93 14.8 11.18 22.92 15.24 20.13 10.06 42.77 13.88 65.15 11.01 24.42-3.14 47.04-14.12 64.59-31.35 8.43-8.28 15.07-17.1 20.7-27.53l.48-.87H31.6l.26.52zM219.92 65.91c-7.3.6-13.51 5.7-15.31 12.58-.17.63-.29 1.16-.28 1.16.01.01 1.21.25 2.67.54 1.46.29 2.73.54 2.82.57.13.04.19-.02.23-.23.15-.7.8-2.59 1.14-3.25 1.11-2.21 2.99-4.21 4.93-5.23 1.53-.81 3.07-1.22 4.93-1.31 4.72-.25 9.09 2.21 10.86 6.11.69 1.53 1.08 3.76.94 5.44-.3 3.8-1.98 7.01-5.78 11.11-.69.74-6.41 6.55-12.71 12.9l-11.45 11.55v3.02l-.01 3.03h36.2v-5.1h-14.97l-14.98-.01 11.26-11.22c10.91-10.87 12.35-12.35 13.66-13.99 2.46-3.09 4.13-6.83 4.53-10.08.13-1.09.13-3.12-.01-4.2-.24-1.98-.63-3.29-1.44-4.92-2.52-5.02-7.36-7.99-13.85-8.48-1.5-.11-1.89-.11-3.38.01zm41.63-.05c-.16.02-.77.09-1.35.15-1.21.13-3.33.64-4.35 1.04-5.99 2.37-9.61 6.57-10.92 12.7-.26 1.23-.27 1.44-.27 3.9 0 2.44.01 2.68.26 3.85 1.17 5.43 4.21 9.45 8.93 11.78 1.61.8 3.29 1.33 5.2 1.63 1.21.2 4.48.17 5.65-.04 2.03-.37 4.04-1.03 4.78-1.56.33-.23.52-.27.52-.11 0 .06-3.56 5.62-7.9 12.38l-7.91 12.27 3.28.03c2.53.02 3.3-.01 3.39-.1.15-.17 14.99-24.11 15.82-25.53.86-1.47 2.17-4.1 2.86-5.73 1.12-2.67 1.59-4.65 1.76-7.47.47-7.72-2.98-14.01-9.42-17.18-2.34-1.15-4.46-1.74-7.03-1.96-1.13-.1-2.63-.12-3.3-.05zm3.3 4.99c4.14.59 7.55 3 9.33 6.61 1 2.02 1.51 4.5 1.39 6.84-.31 6.21-3.89 10.64-9.57 11.85-1.81.38-4.55.35-6.35-.07-2.21-.52-3.98-1.44-5.49-2.88-2.22-2.11-3.45-4.81-3.76-8.26-.13-1.35-.02-3.21.26-4.44.89-3.93 3.27-6.95 6.79-8.61 2.15-1.01 4.9-1.4 7.4-1.04zm31.85 34.9v18.15h3.18l.05-6.58c.05-7.2.06-7.37.67-9.04 1.14-3.11 3.58-4.82 6.65-4.64 1.19.07 1.82.22 2.64.67 1.58.83 2.47 2.37 2.8 4.82.07.49.11 3.4.11 7.78v6.99h3.3v-7.43c0-5.95-.03-7.61-.15-8.37-.48-3.22-2.17-5.59-4.68-6.6-1.89-.75-4.79-.81-6.77-.12-1.79.62-3.42 1.88-4.17 3.22-.15.27-.31.5-.35.5-.05 0-.08-3.94-.08-8.75V87.6h-3.2v18.15zm-11.5-7.5v3.15h-4.6v2.8h4.58l.05 7.62c.04 6.38.07 7.73.19 8.26.48 1.98 1.83 3.38 3.73 3.87 1.4.36 3.63.26 5.05-.23l.55-.19.03-.49c.02-.27.01-.9-.03-1.4l-.07-.91-.86.31c-.77.27-1 .31-1.97.31-1.01 0-1.15-.02-1.67-.28-.72-.35-1.12-.83-1.41-1.67-.21-.64-.22-.73-.25-7.93l-.03-7.27h6.31v-2.8h-6.3v-6.3h-3.3v3.15zM80.9 336.31c-3.71.36-7.05 3.03-8 6.39-.43 1.54-.35 3.77.21 5.25.46 1.24 1.69 2.69 2.97 3.52.8.51 2.29 1.19 4.8 2.19 4.37 1.74 5.68 2.62 6.6 4.45.93 1.85.95 3.86.06 5.69-.28.57-.57.95-1.23 1.6-1.21 1.2-2.33 1.76-4.02 2.01-2.2.32-5.03-.6-8.06-2.61l-1.18-.78-.03 1.36c-.01.75 0 1.42.02 1.48.11.29 2.22 1.45 3.69 2.03.39.16 1.22.42 1.82.57 1.01.26 1.25.29 2.85.28 1.48 0 1.88-.03 2.6-.22 1.02-.27 2.31-.87 3.15-1.47 1.01-.72 2.23-2.09 2.77-3.11.7-1.34.88-2.05.95-3.66.1-2.47-.32-4-1.53-5.59-1.24-1.63-2.58-2.41-7.21-4.25-4.1-1.62-5.26-2.4-6.15-4.11-.46-.88-.61-1.57-.6-2.68.04-4.02 4-6.75 8.51-5.9 1.22.24 2.7.78 4.29 1.6l1.42.72v-2.77l-.7-.35c-2.57-1.29-5.48-1.89-8-1.64zm117.1-.04c-4.56.23-8.16 1.77-11.38 4.87-3.4 3.27-5.02 7.13-5.02 11.93.01 3.49.85 6.35 2.68 9.08 2.39 3.57 6.16 6.21 10.22 7.16 5.52 1.29 11.26.07 15.4-3.28 2.49-2.02 4.35-4.57 5.35-7.33 1.28-3.53 1.26-7.91-.05-11.48-1.6-4.38-5.53-8.23-10.11-9.92-1.96-.73-4.86-1.15-7.09-1.03zm3.18 2.48c1.95.29 3.46.8 4.97 1.66 2.2 1.27 4.15 3.18 5.43 5.35 2.34 3.94 2.51 9.53.43 13.73-1.64 3.31-4.71 6.02-8.16 7.19-4.02 1.37-8.92.91-12.4-1.16-2.42-1.44-4.86-4.08-5.8-6.27-1.18-2.74-1.55-5.12-1.24-7.93.36-3.34 1.78-6.25 4.2-8.58 1.81-1.74 3.55-2.79 5.78-3.48.71-.23 1.18-.32 2.81-.59.63-.11 3.09-.06 3.98.08zm63.12-2.44c-4.02.27-7.6 1.86-10.68 4.74-2.7 2.52-4.32 5.62-4.93 9.4-.17 1.04-.17 4.26 0 5.3.74 4.6 3.04 8.26 6.89 10.98 5.49 3.87 13.4 4.1 20.75.6l1.17-.56v-1.29c0-.7-.02-1.28-.03-1.28-.02 0-.64.29-1.38.64-4.24 2.01-7.99 2.85-11.55 2.56-3.54-.28-6.21-1.37-8.64-3.5-2.78-2.46-4.32-5.66-4.59-9.58-.4-5.73 1.88-10.52 6.42-13.52 4.6-3.04 11.39-2.93 18.16.31.68.32 1.25.59 1.27.59.02 0 .04-.61.04-1.35v-1.36l-.67-.3c-2.01-.91-4.5-1.67-6.83-2.09-.95-.16-3.79-.43-4.15-.38-.05 0-.62.04-1.25.09zM27.2 353.05v16.35h2.5l.02-14.27.03-14.27 12.4 14.27 12.4 14.27h2.15v-32.7h-2.6l-.02 14.25-.03 14.24-12.35-14.24-12.35-14.25H27.2v16.35zm37 0v16.35h2.5v-32.7h-2.5v16.35zm32.5 0v16.35h2.5v-15.5h21.9v15.5h2.5v-32.7h-2.5v15.1l-10.92-.02-10.93-.03-.03-7.53-.02-7.52h-2.5v16.35zm34.5 0v16.35h2.5v-32.7h-2.5v16.35zm91.2-.01v16.36h2.6v-15.72l3.18.04c6.22.09 6.05-.05 13.26 11.3l2.78 4.38h2.98l-.41-.63c-2.54-3.94-7.81-11.91-8.4-12.71-.93-1.25-1.93-2.32-2.48-2.66-.4-.25-.52-.4-.3-.4.22 0 1.97-.88 2.6-1.31 2.81-1.91 3.99-5.06 3.22-8.64-.54-2.55-2.63-4.72-5.45-5.64-1.9-.63-2.06-.64-8.05-.68l-5.53-.04v16.35zm10.3-14.09c3.09.46 5.13 1.9 5.9 4.15.28.81.37 2.37.2 3.37-.39 2.33-2.18 4.05-4.9 4.72-1.32.32-2.5.41-5.82.41H225v-12.8h3.38c2.42 0 3.64.04 4.32.15zm49.7 14.1v16.35h2.6v-15.5h21.8v15.5h2.6v-32.7h-2.6v15.1H285v-15.1h-2.6v16.35zm34.6 0v16.35h18.2v-2.1h-15.7V354h15v-2.1l-7.47-.02-7.48-.03-.03-6.52-.02-6.53 7.67-.02 7.68-.03.03-1.03.03-1.02H317v16.35zm-164.4 5.5v1.15h11.41l-.03-1.13-.03-1.12-5.67-.03-5.68-.02v1.15z" fill="#780000"/></svg>