<svg xmlns="http://www.w3.org/2000/svg" buffered-rendering="static" xmlns:xlink="http://www.w3.org/1999/xlink" width="2100" height="2970" viewBox="0 0 2100 2970"><desc>This file was created by http://www.h2.dion.ne.jp/~defghi/img2svg3/img2svg3.htm at Sun Sep 03 2017 22:43:12 GMT+0900 (JST)</desc><defs><g id="a"><path d="M1050 0H0v2970h2100V0H1050z" fill="#fff"/><path d="M1050 0H0v2970h2100V0H1050zM653.8 1370.1c2.8 0 9.8.4 15.5 1 5.6.6 14 2.2 18.7 3.6 4.7 1.3 11.2 3.7 14.5 5.3 3.3 1.6 9.4 5.1 13.5 7.7 4.1 2.7 10.6 8 14.4 11.9 3.8 3.8 9.2 10.1 11.9 13.9 2.7 3.9 6.4 9.9 8.2 13.5 1.8 3.6 4.9 11.2 6.8 17 1.9 5.8 4.3 15 5.2 20.5 1.2 6.7 1.8 15.3 1.8 26 0 10.9-.6 19.2-1.8 26-1 5.5-3.1 13.9-4.6 18.8-1.6 4.8-4.2 11.5-5.7 15-1.6 3.4-4.9 9.5-7.5 13.5-2.6 3.9-8 10.6-11.9 14.8-4 4.2-10 9.7-13.3 12.1-3.3 2.5-10.5 6.7-16 9.4-5.5 2.6-13.6 5.7-18 6.8-4.4 1.1-12.7 2.5-18.5 3-6 .5-15 .6-21 .1-5.8-.5-13.9-1.6-18-2.6-4.1-.9-11.3-3.3-16-5.3-4.7-1.9-11.6-5.6-15.5-8.1-3.8-2.6-10.1-7.5-13.9-11.1-3.8-3.5-9.1-9.3-11.8-12.9-2.8-3.6-7.4-11.4-10.3-17.5-3-6-6.3-13.7-7.3-17-1.1-3.3-2.7-9.6-3.6-14-.9-4.4-2-12.9-2.5-19s-.5-16.4 0-23c.4-6.6 1.7-16 2.7-21 1.1-4.9 3-11.9 4.2-15.5 1.2-3.6 3.4-9.2 4.9-12.5 1.5-3.3 4.9-9.3 7.4-13.2 2.6-4 8.2-11 12.5-15.4 4.2-4.5 10.4-10.1 13.7-12.5 3.3-2.3 10.3-6.3 15.5-8.7 5.2-2.5 12.9-5.4 17-6.6 4.1-1.1 11.1-2.4 15.5-2.9s10.4-1 13.3-1.1zm829 0c3.4 0 9.7.4 14 1 4.2.6 10.9 1.9 14.7 2.9 3.9 1 10.4 3.3 14.5 5.2 4.1 1.9 10.2 5.2 13.5 7.4 3.2 2.1 8.4 6.2 11.3 8.9 3 2.8 8 8.4 11 12.5 3.1 4.1 7.2 10.9 9 15 1.9 4.1 4.3 10.9 5.3 15 1.1 4.1 1.9 7.8 1.9 8.3 0 .4-3.1.7-7 .7h-7l-.6-2.7c-.3-1.6-1.9-6.2-3.4-10.3-1.6-4.1-5.2-11.1-8.1-15.5-2.8-4.4-7.9-10.7-11.3-14-3.4-3.3-9.2-7.9-13.1-10.3-3.8-2.3-10.4-5.3-14.5-6.7-4.1-1.4-11.1-3-15.5-3.6-4.6-.7-13.1-.9-20-.6-6.6.3-14.9 1.3-18.5 2.2-3.6.9-10.5 3.6-15.5 6-4.9 2.3-12.6 7.1-16.9 10.6-4.4 3.5-10.6 9.8-13.8 13.9-3.2 4.1-7.8 11.3-10.2 16-2.4 4.7-5.6 12.3-7.1 17-1.4 4.7-3.3 11.7-4.2 15.5-.8 3.9-1.7 14-2 22.5-.4 11.4-.1 18.3 1.1 26 .9 5.8 2.8 14.3 4.2 19 1.5 4.7 4.1 11.7 5.9 15.5 1.8 3.9 5.1 9.7 7.4 13 2.3 3.3 6.5 8.4 9.4 11.4 2.8 3 7.5 7.1 10.2 9.1 2.8 2 7.7 5.1 11 6.8 3.3 1.7 8.7 4.1 12 5.2 3.3 1.1 9.8 2.7 14.5 3.5 4.7.9 12.6 1.5 17.5 1.5 5 0 12.9-.7 17.8-1.5 4.8-.8 12-2.6 16-4 3.9-1.4 10.1-4.2 13.7-6.2 4.1-2.2 9.9-7 15.5-12.7 6.8-6.8 10.1-11.1 13.2-17.1 2.3-4.4 5.4-12 6.8-17 2-6.7 2.9-12.2 3.4-21.8l.6-12.7H1485l.3-6.2.2-6.3h96l.3 56.3.2 56.2h-13v-47l-4.2 8.3c-3.3 6.4-6.3 10.3-13.8 17.8-8.4 8.5-10.7 10.2-20 14.7-5.8 2.9-14.3 6.3-19 7.6-4.7 1.3-13 2.9-18.5 3.5-6.9.7-13.6.7-21.5 0-6.3-.5-15.1-1.9-19.5-3s-12-3.9-17-6.3c-4.9-2.3-11.2-5.7-14-7.6-2.7-1.9-8.4-6.7-12.5-10.6-4.1-3.9-9.8-10.5-12.6-14.5-2.8-4.1-6.7-10.5-8.7-14.4-1.9-3.8-4.6-10.6-6.1-15-1.4-4.4-3.3-11.4-4.1-15.5-.9-4.1-2-12.9-2.6-19.5-.7-8.4-.7-15.6 0-23.7.6-6.5 1.8-15.1 2.6-19 .8-4 2.7-10.9 4.1-15.3 1.5-4.4 4-10.9 5.6-14.5 1.6-3.6 5.5-10.3 8.6-15 3.1-4.7 9-11.9 13.2-16.1 4.1-4.1 10.4-9.5 14-11.9 3.6-2.4 10.1-6.1 14.5-8.1 4.4-2.1 11.4-4.7 15.5-5.8 4.1-1.2 11.1-2.5 15.5-3 4.4-.4 10.8-.9 14.3-1zM348.3 1376l9.2.1 72 104.7 72 104.8.3-104.8.2-104.8h15v229h-17.5L427 1499.6l-72.5-105.4-.2 105.4-.3 105.4h-15v-229h9.3zm542.7 0h7v229h-14v-229h7zm57.6.3l10.7.2 44.6 106.2c24.5 58.4 44.8 106 45.1 105.7.3-.4 20.2-48.2 44.3-106.3 24-58.1 43.7-105.7 43.7-105.8 0-.2 4.7-.3 10.5-.3h10.5v229h-15l-.2-105.1-.3-105-43.2 104.8-43.2 104.8-7.3.3-7.3.3-44-105.5-44-105.6-.2 105.5-.3 105.5h-15v-229l10.6.3zm325.5 0l8.1.2 44.4 112.5c24.4 61.9 44.6 113.3 44.9 114.3.4 1.5-.3 1.7-7.1 1.5l-7.7-.3-14.1-36-14.2-36-54.9-.3-55-.3-14.5 36.6-14.5 36.5H1174l2.1-5.2c1.1-2.9 21.4-53.4 45.1-112.3 23.7-58.8 43.4-108 43.9-109.2l.9-2.3 8.1.3zm423.4-.3h77.5v12h-140v92h132v12h-132v101h142v12h-157v-229h77.5zM658 1383.4c-9.7-.2-16.6.1-21 1-3.6.8-8.7 2.2-11.5 3.1-2.7.9-7.7 3.1-11 4.7-3.3 1.7-8.5 4.7-11.5 6.8-3 2-9.1 7.5-13.5 12.2-4.4 4.6-9.9 11.8-12.2 15.9-2.4 4.1-5.6 10.6-7.2 14.4-1.5 3.9-3.8 10.8-5 15.5-1.2 4.7-2.6 12.6-3.2 17.5-.7 5.3-.9 14.6-.5 22.5.3 7.4 1.4 17.3 2.5 22 1 4.7 3.1 11.9 4.5 16 1.5 4.1 4.5 10.9 6.7 15 2.3 4.1 6.1 10 8.4 13 2.4 3 6.7 7.8 9.7 10.6 2.9 2.9 8.5 7.3 12.3 9.8 3.9 2.6 10.2 6 14 7.6 3.9 1.6 10.2 3.7 14 4.6 5.2 1.4 10.9 1.8 22.5 1.8 12.8 0 16.9-.4 23.5-2.2 4.4-1.2 11.4-3.8 15.5-5.8s10.2-5.5 13.5-7.9c3.3-2.3 9-7.4 12.6-11.1 3.6-3.8 8.2-9.4 10.1-12.4 1.9-3 5-8.4 6.8-12 1.8-3.6 4.5-10.3 6-15 1.6-4.7 3.6-13.7 4.5-20 1.3-8.6 1.6-15.1 1.2-26-.3-8-1.3-17.9-2.2-22-.9-4.1-2.7-10.8-4-14.7-1.4-4-4.3-10.8-6.4-15-2.1-4.3-5.9-10.5-8.3-13.8-2.4-3.3-6.7-8.2-9.4-10.9-2.7-2.7-7.1-6.6-9.9-8.7-2.7-2.1-8.6-5.6-13-7.8s-11.6-5-16-6.2c-6-1.6-11.6-2.2-22.5-2.5zm616.4 6.6c-.2-.3-.9.9-1.4 2.5-.6 1.7-12 30.7-25.3 64.5l-24.3 61.5 49.6.2 49.5.3.3-.3c.1-.1-10.6-29-23.9-64.2-13.2-35.2-24.3-64.2-24.5-64.5z" fill="#a5aaa9"/></g></defs><use xlink:href="#a"/></svg>