<?xml version="1.0" standalone="no"?>
<!DOCTYPE svg PUBLIC "-//W3C//DTD SVG 20010904//EN"
 "http://www.w3.org/TR/2001/REC-SVG-20010904/DTD/svg10.dtd">
<svg version="1.0" xmlns="http://www.w3.org/2000/svg"
 width="360.000000pt" height="360.000000pt" viewBox="0 0 360.000000 360.000000"
 preserveAspectRatio="xMidYMid meet">
<metadata>
Created by potrace 1.15, written by Peter Selinger 2001-2017
</metadata>
<g transform="translate(0.000000,360.000000) scale(0.025714,-0.025714)"
fill="#333" stroke="none">
<path d="M6850 13175 c-153 -19 -283 -50 -365 -85 -11 -5 -36 -12 -55 -15 -19
-4 -48 -11 -65 -16 -95 -30 -369 -121 -420 -140 -33 -12 -91 -30 -130 -39 -38
-10 -115 -34 -170 -55 -55 -20 -116 -40 -135 -45 -20 -5 -81 -27 -137 -50 -55
-22 -105 -40 -112 -40 -6 0 -19 -4 -29 -9 -9 -5 -46 -17 -82 -27 -36 -10 -70
-22 -77 -27 -7 -5 -16 -6 -21 -3 -12 7 -72 -16 -72 -27 0 -10 -94 -3 -217 15
-97 14 -193 18 -213 7 -8 -4 -31 -10 -50 -14 -81 -12 -245 -109 -316 -186 -63
-68 -143 -215 -164 -299 -6 -25 -15 -56 -20 -70 -16 -41 -30 -158 -36 -292 -7
-173 -24 -265 -81 -428 -34 -100 -110 -288 -132 -327 -6 -10 -26 -52 -44 -93
-19 -41 -46 -100 -59 -130 -34 -75 -98 -273 -104 -325 -2 -11 -12 -60 -23
-110 -11 -49 -25 -110 -30 -135 -22 -98 -34 -559 -20 -775 4 -66 10 -167 13
-225 11 -183 26 -333 40 -415 8 -44 17 -102 21 -130 3 -27 12 -70 19 -95 53
-178 69 -228 82 -251 7 -14 11 -29 8 -32 -3 -2 2 -22 10 -42 9 -21 16 -47 16
-58 0 -11 8 -39 19 -61 10 -23 28 -90 40 -151 12 -60 27 -135 34 -165 16 -73
15 -339 -2 -415 -18 -83 -110 -316 -132 -335 -3 -3 -24 -43 -46 -90 -22 -47
-59 -116 -83 -155 -23 -38 -63 -108 -88 -155 -25 -47 -54 -98 -66 -115 -20
-28 -81 -159 -93 -197 -3 -10 -9 -18 -14 -18 -5 0 -9 -6 -9 -13 0 -16 -28 -76
-45 -97 -7 -8 -27 -44 -45 -80 -17 -36 -36 -72 -41 -80 -30 -50 -119 -239
-123 -262 -2 -14 -11 -37 -19 -50 -8 -12 -36 -90 -61 -173 -26 -82 -51 -157
-55 -165 -4 -8 -14 -40 -21 -70 -6 -30 -16 -63 -22 -73 -5 -10 -11 -42 -14
-70 -6 -61 -42 -235 -54 -257 -7 -15 -25 -138 -22 -152 1 -4 -2 -29 -7 -55 -5
-26 -13 -86 -17 -133 -7 -90 -12 -135 -13 -135 -1 0 -1 -67 -1 -150 0 -82 0
-172 0 -198 0 -42 4 -88 25 -247 11 -86 26 -178 37 -215 33 -121 72 -252 119
-400 16 -49 49 -157 74 -240 25 -82 50 -159 55 -170 5 -11 20 -51 34 -90 28
-78 91 -245 129 -347 15 -36 46 -106 71 -155 24 -48 61 -124 81 -168 20 -44
42 -86 49 -95 7 -8 26 -40 41 -70 15 -30 34 -67 41 -82 8 -14 31 -59 52 -100
53 -100 76 -138 85 -138 4 0 7 -4 7 -10 0 -5 11 -22 24 -37 14 -16 51 -59 82
-98 32 -38 63 -76 69 -82 30 -36 195 -202 225 -226 19 -16 62 -40 95 -54 33
-13 74 -31 92 -39 17 -8 35 -14 40 -14 8 0 58 -14 213 -62 41 -12 84 -24 95
-25 11 -1 52 -7 90 -13 75 -12 267 -15 325 -6 55 10 1425 13 1520 4 47 -4 188
-10 314 -13 125 -3 232 -7 236 -10 5 -3 111 -8 237 -10 195 -5 251 -3 388 16
88 11 183 23 210 25 28 3 93 11 145 18 52 8 149 18 215 21 66 4 143 9 170 11
28 2 205 6 395 9 694 10 795 13 820 23 14 5 65 49 115 96 49 48 107 101 128
119 21 18 49 47 61 64 12 18 71 83 129 144 59 61 135 147 170 191 34 44 90
115 125 157 34 42 75 94 90 116 15 22 51 73 80 114 28 41 52 80 52 87 0 8 4
14 8 14 5 0 15 12 23 27 8 16 26 46 40 68 15 22 41 67 58 100 18 33 40 74 50
90 64 108 141 259 141 275 0 11 3 19 45 100 15 30 36 64 45 75 10 11 32 49 50
85 18 36 43 79 56 97 13 17 24 36 24 41 0 6 16 44 35 85 19 41 35 79 35 84 0
6 14 43 31 84 17 41 35 88 40 104 4 17 20 64 35 105 24 67 27 90 28 215 1 77
-3 163 -7 190 -5 28 -10 68 -12 90 -2 22 -12 72 -21 110 -20 84 -21 101 -29
370 -3 115 -10 226 -14 247 -5 21 -7 46 -4 56 2 10 -1 31 -8 47 -6 17 -12 48
-13 70 -2 36 -10 80 -36 200 -29 136 -107 428 -121 455 -13 27 -49 124 -65
180 -15 52 -76 213 -111 290 -8 19 -29 73 -45 120 -16 47 -40 103 -53 125 -12
22 -42 76 -65 120 -98 182 -144 262 -196 341 -22 32 -81 142 -131 244 -94 190
-101 211 -143 439 -41 223 -21 512 45 647 19 39 35 77 35 85 0 18 56 192 70
219 13 23 62 182 90 288 11 41 23 79 27 85 4 7 17 48 29 92 12 44 34 121 48
170 39 132 44 152 56 240 6 44 16 102 21 128 21 112 29 353 15 462 -4 33 -8
68 -7 78 0 9 -7 29 -15 45 -7 15 -14 37 -14 48 0 12 -7 44 -15 70 -8 27 -26
90 -40 139 -24 81 -41 131 -66 190 -4 11 -16 47 -25 80 -9 33 -23 69 -30 80
-8 11 -14 30 -14 42 0 13 -18 60 -39 106 -21 45 -45 105 -51 132 -7 28 -16 55
-20 60 -4 6 -11 25 -15 44 -4 19 -17 53 -29 75 -24 44 -37 69 -53 101 -5 11
-15 29 -21 40 -26 46 -72 151 -72 162 0 7 -7 32 -15 55 -8 24 -17 68 -20 98
-3 30 -9 84 -15 120 -5 36 -10 93 -10 128 0 69 -25 249 -41 299 -6 18 -12 47
-14 65 -9 72 -17 108 -25 113 -5 3 -7 12 -3 21 3 8 -1 22 -9 32 -8 9 -21 32
-28 50 -12 30 -65 90 -136 153 -35 31 -189 109 -215 109 -9 0 -19 4 -21 8 -3
9 -153 42 -303 67 -44 8 -179 17 -300 20 -121 3 -260 12 -309 21 -97 16 -325
88 -424 135 -35 16 -65 29 -68 29 -9 0 -137 50 -157 61 -28 15 -209 74 -322
104 -55 14 -118 33 -140 41 -23 8 -50 14 -62 14 -12 0 -46 9 -75 21 -144 57
-332 72 -548 44z m400 -155 c41 -6 91 -13 110 -15 19 -3 51 -9 70 -14 19 -5
58 -15 85 -22 28 -7 55 -15 60 -19 9 -7 73 -22 100 -25 6 0 19 -6 30 -12 11
-5 34 -13 50 -17 17 -4 44 -13 60 -21 17 -7 59 -23 95 -35 36 -13 74 -28 85
-35 11 -7 45 -20 75 -30 30 -10 62 -23 70 -30 8 -8 47 -23 85 -35 39 -12 95
-30 125 -40 130 -42 157 -49 195 -55 22 -4 94 -20 160 -35 72 -17 164 -31 230
-35 201 -11 403 -36 480 -61 28 -9 86 -33 130 -54 110 -52 155 -105 240 -279
31 -65 40 -103 71 -290 30 -187 51 -286 93 -451 5 -19 18 -60 29 -90 10 -30
29 -86 41 -125 20 -62 43 -124 70 -190 11 -26 80 -165 92 -185 83 -140 169
-433 184 -625 4 -48 13 -99 25 -140 9 -29 17 -93 26 -205 2 -30 6 -62 9 -70 2
-8 5 -130 6 -270 1 -195 -3 -279 -15 -355 -9 -55 -21 -125 -26 -155 -25 -150
-80 -366 -117 -455 -14 -33 -32 -84 -40 -114 -7 -30 -17 -60 -22 -65 -12 -17
-108 -302 -125 -376 -8 -36 -18 -87 -21 -115 -3 -27 -11 -66 -17 -85 -13 -38
-14 -230 -3 -400 12 -188 37 -268 148 -490 39 -76 68 -124 127 -205 92 -127
108 -152 195 -315 43 -80 90 -167 105 -195 29 -54 100 -216 100 -228 0 -4 14
-37 30 -72 17 -35 30 -71 30 -80 0 -8 4 -23 9 -33 89 -168 245 -758 266 -1005
3 -34 10 -107 16 -162 6 -55 15 -158 19 -230 5 -71 10 -134 11 -140 3 -22 -13
-356 -22 -457 -16 -182 -54 -360 -89 -413 -7 -10 -48 -115 -69 -175 -7 -19
-23 -64 -36 -100 -12 -36 -32 -100 -44 -143 -32 -113 -110 -271 -238 -477 -15
-25 -35 -57 -44 -71 -8 -15 -24 -40 -35 -56 -10 -15 -24 -37 -30 -48 -27 -47
-81 -133 -104 -164 -14 -19 -38 -58 -55 -87 -40 -70 -110 -170 -154 -220 -99
-113 -139 -161 -167 -203 -18 -25 -50 -64 -73 -86 -23 -21 -41 -43 -41 -49 0
-18 -225 -233 -265 -253 -22 -11 -58 -24 -80 -28 -22 -4 -71 -17 -110 -30 -38
-13 -77 -24 -85 -24 -117 -5 -295 -10 -520 -16 -151 -3 -313 -7 -360 -9 -129
-6 -515 -16 -800 -21 -140 -3 -280 -7 -310 -10 -222 -17 -971 -24 -1705 -16
-115 1 -311 -1 -435 -5 -263 -8 -246 -8 -290 -1 -34 6 -55 10 -190 41 -36 9
-90 16 -121 16 -46 0 -71 8 -143 45 -49 25 -92 45 -97 45 -4 0 -20 5 -36 12
-15 6 -41 12 -58 13 -44 3 -112 24 -127 38 -7 7 -28 22 -45 32 -18 11 -33 24
-33 29 0 15 -151 150 -174 156 -11 3 -23 15 -25 25 -2 11 -30 46 -63 78 -33
32 -68 78 -78 103 -19 44 -67 116 -82 122 -5 2 -8 9 -8 16 0 6 -15 35 -34 63
-19 29 -51 87 -72 130 -21 43 -56 110 -79 148 -23 39 -48 88 -56 110 -7 22
-18 47 -24 55 -11 14 -68 130 -150 305 -21 44 -44 87 -51 95 -12 14 -57 127
-53 132 1 2 -8 21 -20 43 -11 22 -21 45 -21 52 0 8 -4 21 -9 31 -14 27 -31 87
-31 108 0 10 -9 54 -19 96 -11 43 -17 87 -14 97 4 18 -16 208 -33 311 -3 19
-8 62 -10 95 -2 33 -10 96 -18 140 -31 172 -41 534 -25 875 5 118 11 222 13
230 1 8 6 38 10 65 16 113 84 415 96 430 5 6 19 47 30 90 21 75 67 204 110
305 75 178 181 404 209 450 5 8 20 38 32 65 12 28 32 63 43 80 11 16 34 56 50
90 16 33 32 62 35 65 11 8 143 257 180 338 18 40 49 103 68 140 49 94 98 233
113 322 13 77 17 378 6 465 -4 28 -22 129 -41 225 -19 96 -37 189 -40 205 -3
17 -12 50 -20 75 -8 25 -21 81 -30 125 -9 44 -19 91 -21 105 -3 14 -5 25 -5
25 1 0 -9 32 -22 70 -13 39 -27 88 -31 110 -4 22 -16 76 -26 120 -26 107 -41
212 -45 315 -2 47 -7 139 -11 205 -16 249 -5 528 31 765 26 167 103 460 165
620 12 30 28 74 36 97 20 59 113 263 130 288 8 11 14 27 14 36 0 9 7 30 15 47
15 28 35 95 56 186 23 94 36 201 54 431 8 108 37 231 70 295 38 74 174 193
263 231 74 30 224 55 269 44 76 -19 218 -25 283 -12 25 5 56 9 69 8 13 -1 29
3 35 8 6 4 20 11 31 14 11 3 58 19 104 36 46 16 86 29 90 28 7 -2 93 29 136
48 116 53 237 105 259 111 14 3 30 12 37 20 6 8 20 14 30 14 10 0 35 7 56 16
64 28 75 32 163 59 47 15 94 32 105 38 30 16 183 56 189 50 3 -3 8 1 12 10 5
14 55 29 138 42 12 2 61 11 110 19 49 9 92 14 94 11 2 -2 14 0 26 5 12 4 58
11 101 15 44 3 81 8 83 10 8 7 275 -4 352 -15z M5220 11286 c-147 -34 -181
-56 -222 -142 -28 -59 -6 -167 45 -222 78 -84 166 -115 307 -109 77 4 109 12
218 53 34 13 69 24 76 24 8 0 26 14 40 31 24 28 26 38 26 118 0 111 -9 137
-68 187 -51 43 -93 64 -132 65 -14 0 -72 2 -130 4 -63 2 -127 -2 -160 -9z
M8679 11296 c-2 -2 -35 -7 -74 -10 -78 -6 -125 -15 -140 -26 -5 -4 -23 -10
-40 -14 -68 -17 -135 -104 -135 -176 0 -152 135 -260 320 -255 106 4 245 32
316 66 50 23 67 38 94 81 38 60 42 113 15 188 -25 71 -50 89 -175 123 -57 16
-173 31 -181 23z M6845 10512 c-11 -2 -63 -19 -115 -37 -116 -40 -251 -120
-306 -181 -38 -41 -51 -65 -86 -154 -6 -14 -14 -33 -19 -42 -23 -46 -44 -201
-31 -223 4 -5 7 -12 7 -15 6 -38 23 -81 46 -118 16 -25 29 -51 29 -58 0 -16
109 -104 130 -104 17 0 81 -28 90 -40 12 -15 91 -48 155 -65 39 -10 82 -28 97
-40 27 -23 109 -37 178 -30 82 9 330 84 445 135 23 10 54 22 70 26 43 10 127
72 169 124 20 25 40 50 45 56 5 6 15 36 22 67 6 32 16 57 21 57 5 0 7 8 4 18
-3 10 -7 38 -7 62 -2 62 -26 166 -51 220 -28 59 -97 140 -156 183 -26 19 -83
48 -127 66 -76 29 -271 75 -285 66 -3 -2 -35 2 -69 9 -35 7 -100 14 -144 15
-45 1 -84 4 -87 5 -3 1 -14 1 -25 -2z M5653 10417 c-26 -13 -55 -118 -78 -276
-25 -171 -18 -338 21 -570 8 -46 12 -86 10 -89 -3 -2 11 -20 31 -38 35 -33 76
-44 88 -24 4 6 12 10 18 9 42 -5 77 38 47 56 -46 28 -82 219 -84 430 0 155 18
296 55 428 11 41 11 49 -2 62 -20 20 -78 27 -106 12z M8232 10418 c-17 -17
-15 -54 8 -122 11 -33 20 -71 20 -86 0 -15 3 -30 8 -34 8 -9 9 -13 18 -178 9
-163 -10 -298 -60 -437 -20 -54 -20 -66 0 -85 20 -20 66 -20 104 -1 22 11 31
25 35 53 4 20 10 48 15 62 34 95 43 162 44 320 1 248 -13 329 -86 476 -18 38
-82 56 -106 32z M9028 8153 c-24 -6 -24 -89 -2 -204 15 -80 15 -112 -2 -239
-8 -64 10 -84 73 -85 26 0 53 3 58 8 6 4 18 13 28 20 27 18 47 196 37 324 -9
114 -12 123 -60 158 -33 24 -83 31 -132 18z M4660 7872 c-37 -18 -36 -15 -30
-102 8 -106 108 -351 183 -443 28 -35 81 -48 118 -30 59 29 62 64 10 124 -48
54 -75 171 -68 286 6 80 4 94 -12 115 -18 21 -22 22 -52 11 -34 -13 -49 -10
-49 12 0 19 -28 45 -48 45 -9 0 -33 -8 -52 -18z M8735 7846 c-11 -16 -12 -31
-3 -66 10 -43 5 -244 -8 -300 -8 -36 22 -69 71 -80 50 -11 74 8 94 77 8 26 25
81 38 121 31 97 30 123 -5 143 -18 10 -31 28 -37 54 -7 27 -19 44 -40 55 -43
24 -93 22 -110 -4z M8391 7706 c-23 -24 -26 -47 -12 -74 17 -33 43 -216 39
-276 -8 -114 -59 -235 -82 -197 -9 14 -59 20 -78 10 -26 -14 -58 -93 -73 -183
-9 -53 -70 -196 -84 -196 -4 0 -21 -13 -39 -29 -51 -47 -40 -90 25 -98 50 -6
85 14 174 101 46 46 73 82 88 119 22 53 23 54 54 47 45 -9 117 18 117 45 0 11
9 48 20 82 24 77 31 143 33 293 1 108 -7 167 -44 312 -16 63 -97 88 -138 44z
M5395 7653 c-16 -3 -36 -9 -42 -15 -16 -13 -17 -88 -2 -143 18 -71 62 -210 69
-220 4 -5 19 -50 35 -100 16 -49 34 -97 40 -105 15 -19 55 -119 55 -135 0 -7
7 -18 15 -25 8 -7 15 -26 15 -42 0 -24 6 -32 43 -47 39 -17 45 -17 82 -3 52
20 65 37 65 88 0 24 4 46 10 49 5 3 25 -25 44 -63 19 -37 42 -74 51 -82 17
-14 54 -90 74 -152 11 -34 16 -38 47 -38 62 0 185 76 205 127 5 12 13 23 18
23 5 0 24 -25 43 -56 18 -32 38 -64 43 -73 6 -9 32 -52 59 -96 26 -44 52 -82
55 -85 4 -3 26 -32 48 -65 50 -73 88 -115 105 -115 64 0 144 49 184 111 13 22
28 37 33 35 4 -3 28 -40 53 -83 98 -169 168 -212 255 -157 26 16 62 82 92 169
21 60 17 87 -14 99 -26 9 -105 -33 -116 -62 -4 -11 -16 -22 -28 -25 -15 -4
-28 7 -59 53 -22 32 -43 71 -46 87 -9 41 -55 82 -96 87 -40 5 -67 -10 -131
-71 l-45 -43 -77 77 c-76 77 -159 191 -217 298 -16 30 -30 60 -30 65 0 6 -9
30 -21 55 -21 44 -22 45 -71 45 -48 0 -51 -2 -123 -75 -40 -41 -77 -75 -83
-75 -13 0 -67 90 -82 136 -7 22 -33 83 -59 137 l-46 98 -58 -4 c-33 -2 -62 -8
-65 -13 -4 -5 -19 -17 -34 -26 -14 -10 -29 -27 -33 -38 -11 -34 -23 -22 -44
43 -19 61 -39 113 -67 174 -13 28 -32 114 -49 215 -3 21 -13 44 -21 53 -15 15
-23 16 -79 8z M7747 6882 c-10 -10 -14 -21 -11 -24 3 -4 1 -15 -5 -26 -6 -11
-12 -55 -15 -98 -4 -73 -45 -226 -66 -248 -4 -4 -17 12 -28 38 -16 34 -27 47
-49 51 -15 4 -36 10 -45 16 -12 6 -18 6 -18 -1 0 -5 -6 -10 -13 -10 -21 0 -52
-40 -84 -110 -16 -36 -48 -86 -70 -112 -47 -53 -47 -80 -4 -98 43 -17 114 4
150 46 l29 33 40 -63 c39 -62 41 -64 88 -68 44 -3 52 -1 82 29 63 63 90 146
113 342 11 97 25 195 30 219 10 47 1 75 -31 92 -29 16 -75 12 -93 -8z M4647
4731 c-40 -22 -47 -31 -47 -57 0 -51 37 -153 81 -219 10 -16 22 -38 25 -47 4
-10 10 -18 15 -18 5 0 14 -11 19 -25 13 -34 48 -46 82 -29 15 8 34 14 43 14 8
0 15 7 15 15 0 8 4 15 10 15 15 0 3 77 -19 123 -24 49 -44 143 -36 168 3 10 1
20 -5 24 -5 3 -10 15 -10 25 0 25 -19 29 -58 13 -28 -12 -33 -11 -38 1 -10 25
-29 25 -77 -3z M9080 4664 c-6 -14 -10 -35 -10 -46 0 -21 -45 -204 -60 -243
-4 -11 -17 -41 -29 -68 -28 -62 -27 -68 14 -95 46 -32 81 -23 128 33 51 60 72
100 92 170 18 60 23 77 44 128 21 52 20 53 -52 115 -29 24 -47 32 -78 32 -33
0 -41 -4 -49 -26z M4381 4521 c-13 -3 -33 -18 -44 -33 -18 -24 -18 -31 -7 -94
6 -38 20 -85 30 -104 10 -19 28 -56 40 -82 13 -27 27 -48 32 -48 5 0 12 -8 15
-17 14 -39 76 -103 99 -103 56 0 98 37 110 98 4 22 -2 36 -34 72 -22 25 -51
70 -66 100 -15 30 -32 63 -38 74 -5 10 -16 40 -24 67 -11 36 -22 51 -46 63
-17 9 -34 16 -37 15 -3 -1 -17 -4 -30 -8z M9438 4499 c-10 -5 -18 -20 -18 -33
0 -35 -38 -176 -61 -226 -33 -71 -107 -195 -129 -215 -26 -24 -25 -47 3 -73
35 -33 83 -44 117 -27 39 20 137 130 188 211 24 38 66 104 93 148 28 43 49 85
47 94 -2 9 -25 28 -52 42 -28 14 -58 33 -68 42 -16 16 -82 48 -97 48 -3 0 -14
-5 -23 -11z M4093 4359 c-20 -13 -34 -32 -38 -52 -4 -18 -14 -40 -22 -49 -12
-13 -14 -30 -9 -64 3 -26 10 -52 15 -58 4 -6 12 -22 17 -36 14 -40 117 -190
169 -249 48 -52 50 -53 94 -48 56 6 89 42 88 95 -1 28 -7 39 -30 51 -21 12
-45 50 -93 146 -35 72 -77 164 -92 205 -31 84 -46 93 -99 59z M9706 4308 c-17
-66 -59 -190 -74 -218 -54 -103 -126 -228 -143 -246 -25 -26 -24 -46 2 -70 38
-34 69 -42 114 -26 77 26 159 124 253 303 67 126 68 145 13 177 -17 9 -32 24
-34 34 -11 39 -122 78 -131 46z M3845 4122 c-16 -9 -50 -23 -74 -32 -38 -13
-46 -22 -54 -50 -6 -24 -5 -41 4 -55 7 -11 34 -65 62 -120 52 -105 104 -179
174 -248 72 -70 108 -97 130 -97 41 0 91 27 107 59 16 30 16 30 -25 63 -23 18
-47 44 -55 58 -8 14 -23 39 -34 55 -11 17 -34 57 -51 90 -17 33 -38 74 -47 90
-9 17 -28 63 -42 104 -30 89 -51 107 -95 83z M10012 3924 c-95 -154 -147 -205
-247 -244 -22 -9 -41 -23 -43 -33 -5 -23 21 -78 45 -98 54 -43 86 -48 123 -19
14 11 29 20 33 20 5 0 23 11 41 25 18 14 36 25 41 25 4 0 25 15 46 33 21 17
68 57 105 87 108 88 116 97 112 132 -4 42 -47 75 -77 59 -18 -10 -21 -9 -21 9
0 29 -55 80 -86 80 -20 0 -33 -14 -72 -76z"/>
</g>
</svg>
