<?xml version="1.0" standalone="no"?>
<!DOCTYPE svg PUBLIC "-//W3C//DTD SVG 20010904//EN"
 "http://www.w3.org/TR/2001/REC-SVG-20010904/DTD/svg10.dtd">
<svg version="1.0" xmlns="http://www.w3.org/2000/svg"
 width="360.000000pt" height="184.598540pt" viewBox="0 0 360.000000 184.598540"
 preserveAspectRatio="xMidYMid meet">
<metadata>
Created by potrace 1.15, written by Peter Selinger 2001-2017
</metadata>
<g transform="translate(0.000000,184.598540) scale(0.009385,-0.009385)"
fill="#000000" stroke="none">
<path d="M5920 18755 c-153 -19 -283 -50 -365 -85 -11 -5 -36 -12 -55 -15 -19
-4 -48 -11 -65 -16 -95 -30 -369 -121 -420 -140 -33 -12 -91 -30 -130 -39 -38
-10 -115 -34 -170 -55 -55 -20 -116 -40 -135 -45 -20 -5 -81 -27 -137 -50 -55
-22 -105 -40 -112 -40 -6 0 -19 -4 -29 -9 -9 -5 -46 -17 -82 -27 -36 -10 -70
-22 -77 -27 -7 -5 -16 -6 -21 -3 -12 7 -72 -16 -72 -27 0 -10 -94 -3 -217 15
-97 14 -193 18 -213 7 -8 -4 -31 -10 -50 -14 -81 -12 -245 -109 -316 -186 -63
-68 -143 -215 -164 -299 -6 -25 -15 -56 -20 -70 -16 -41 -30 -158 -36 -292 -7
-173 -24 -265 -81 -428 -34 -100 -110 -288 -132 -327 -6 -10 -26 -52 -44 -93
-19 -41 -46 -100 -59 -130 -34 -75 -98 -273 -104 -325 -2 -11 -12 -60 -23
-110 -11 -49 -25 -110 -30 -135 -22 -98 -34 -559 -20 -775 4 -66 10 -167 13
-225 11 -183 26 -333 40 -415 8 -44 17 -102 21 -130 3 -27 12 -70 19 -95 53
-178 69 -228 82 -251 7 -14 11 -29 8 -32 -3 -2 2 -22 10 -42 9 -21 16 -47 16
-58 0 -11 8 -39 19 -61 10 -23 28 -90 40 -151 12 -60 27 -135 34 -165 16 -73
15 -339 -2 -415 -18 -83 -110 -316 -132 -335 -3 -3 -24 -43 -46 -90 -22 -47
-59 -116 -83 -155 -23 -38 -63 -108 -88 -155 -25 -47 -54 -98 -66 -115 -20
-28 -81 -159 -93 -197 -3 -10 -9 -18 -14 -18 -5 0 -9 -6 -9 -13 0 -16 -28 -76
-45 -97 -7 -8 -27 -44 -45 -80 -17 -36 -36 -72 -41 -80 -30 -50 -119 -239
-123 -262 -2 -14 -11 -37 -19 -50 -8 -12 -36 -90 -61 -173 -26 -82 -51 -157
-55 -165 -4 -8 -14 -40 -21 -70 -6 -30 -16 -63 -22 -73 -5 -10 -11 -42 -14
-70 -6 -61 -42 -235 -54 -257 -7 -15 -25 -138 -22 -152 1 -4 -2 -29 -7 -55 -5
-26 -13 -86 -17 -133 -7 -90 -12 -135 -13 -135 -1 0 -1 -67 -1 -150 0 -82 0
-172 0 -198 0 -42 4 -88 25 -247 11 -86 26 -178 37 -215 33 -121 72 -252 119
-400 16 -49 49 -157 74 -240 25 -82 50 -159 55 -170 5 -11 20 -51 34 -90 28
-78 91 -245 129 -347 15 -36 46 -106 71 -155 24 -48 61 -124 81 -168 20 -44
42 -86 49 -95 7 -8 26 -40 41 -70 15 -30 34 -67 41 -82 8 -14 31 -59 52 -100
53 -100 76 -138 85 -138 4 0 7 -4 7 -10 0 -5 11 -22 24 -37 14 -16 51 -59 82
-98 32 -38 63 -76 69 -82 30 -36 195 -202 225 -226 19 -16 62 -40 95 -54 33
-13 74 -31 92 -39 17 -8 35 -14 40 -14 8 0 58 -14 213 -62 41 -12 84 -24 95
-25 11 -1 52 -7 90 -13 75 -12 267 -15 325 -6 55 10 1425 13 1520 4 47 -4 188
-10 314 -13 125 -3 232 -7 236 -10 5 -3 111 -8 237 -10 195 -5 251 -3 388 16
88 11 183 23 210 25 28 3 93 11 145 18 52 8 149 18 215 21 66 4 143 9 170 11
28 2 205 6 395 9 694 10 795 13 820 23 14 5 65 49 115 96 49 48 107 101 128
119 21 18 49 47 61 64 12 18 71 83 129 144 59 61 135 147 170 191 34 44 90
115 125 157 34 42 75 94 90 116 15 22 51 73 80 114 28 41 52 80 52 87 0 8 4
14 8 14 5 0 15 12 23 27 8 16 26 46 40 68 15 22 41 67 58 100 18 33 40 74 50
90 64 108 141 259 141 275 0 11 3 19 45 100 15 30 36 64 45 75 10 11 32 49 50
85 18 36 43 79 56 97 13 17 24 36 24 41 0 6 16 44 35 85 19 41 35 79 35 84 0
6 14 43 31 84 17 41 35 88 40 104 4 17 20 64 35 105 24 67 27 90 28 215 1 77
-3 163 -7 190 -5 28 -10 68 -12 90 -2 22 -12 72 -21 110 -20 84 -21 101 -29
370 -3 115 -10 226 -14 247 -5 21 -7 46 -4 56 2 10 -1 31 -8 47 -6 17 -12 48
-13 70 -2 36 -10 80 -36 200 -29 136 -107 428 -121 455 -13 27 -49 124 -65
180 -15 52 -76 213 -111 290 -8 19 -29 73 -45 120 -16 47 -40 103 -53 125 -12
22 -42 76 -65 120 -98 182 -144 262 -196 341 -22 32 -81 142 -131 244 -94 190
-101 211 -143 439 -41 223 -21 512 45 647 19 39 35 77 35 85 0 18 56 192 70
219 13 23 62 182 90 288 11 41 23 79 27 85 4 7 17 48 29 92 12 44 34 121 48
170 39 132 44 152 56 240 6 44 16 102 21 128 21 112 29 353 15 462 -4 33 -8
68 -7 78 0 9 -7 29 -15 45 -7 15 -14 37 -14 48 0 12 -7 44 -15 70 -8 27 -26
90 -40 139 -24 81 -41 131 -66 190 -4 11 -16 47 -25 80 -9 33 -23 69 -30 80
-8 11 -14 30 -14 42 0 13 -18 60 -39 106 -21 45 -45 105 -51 132 -7 28 -16 55
-20 60 -4 6 -11 25 -15 44 -4 19 -17 53 -29 75 -24 44 -37 69 -53 101 -5 11
-15 29 -21 40 -26 46 -72 151 -72 162 0 7 -7 32 -15 55 -8 24 -17 68 -20 98
-3 30 -9 84 -15 120 -5 36 -10 93 -10 128 0 69 -25 249 -41 299 -6 18 -12 47
-14 65 -9 72 -17 108 -25 113 -5 3 -7 12 -3 21 3 8 -1 22 -9 32 -8 9 -21 32
-28 50 -12 30 -65 90 -136 153 -35 31 -189 109 -215 109 -9 0 -19 4 -21 8 -3
9 -153 42 -303 67 -44 8 -179 17 -300 20 -121 3 -260 12 -309 21 -97 16 -325
88 -424 135 -35 16 -65 29 -68 29 -9 0 -137 50 -157 61 -28 15 -209 74 -322
104 -55 14 -118 33 -140 41 -23 8 -50 14 -62 14 -12 0 -46 9 -75 21 -144 57
-332 72 -548 44z m400 -155 c41 -6 91 -13 110 -15 19 -3 51 -9 70 -14 19 -5
58 -15 85 -22 28 -7 55 -15 60 -19 9 -7 73 -22 100 -25 6 0 19 -6 30 -12 11
-5 34 -13 50 -17 17 -4 44 -13 60 -21 17 -7 59 -23 95 -35 36 -13 74 -28 85
-35 11 -7 45 -20 75 -30 30 -10 62 -23 70 -30 8 -8 47 -23 85 -35 39 -12 95
-30 125 -40 130 -42 157 -49 195 -55 22 -4 94 -20 160 -35 72 -17 164 -31 230
-35 201 -11 403 -36 480 -61 28 -9 86 -33 130 -54 110 -52 155 -105 240 -279
31 -65 40 -103 71 -290 30 -187 51 -286 93 -451 5 -19 18 -60 29 -90 10 -30
29 -86 41 -125 20 -62 43 -124 70 -190 11 -26 80 -165 92 -185 83 -140 169
-433 184 -625 4 -48 13 -99 25 -140 9 -29 17 -93 26 -205 2 -30 6 -62 9 -70 2
-8 5 -130 6 -270 1 -195 -3 -279 -15 -355 -9 -55 -21 -125 -26 -155 -25 -150
-80 -366 -117 -455 -14 -33 -32 -84 -40 -114 -7 -30 -17 -60 -22 -65 -12 -17
-108 -302 -125 -376 -8 -36 -18 -87 -21 -115 -3 -27 -11 -66 -17 -85 -13 -38
-14 -230 -3 -400 12 -188 37 -268 148 -490 39 -76 68 -124 127 -205 92 -127
108 -152 195 -315 43 -80 90 -167 105 -195 29 -54 100 -216 100 -228 0 -4 14
-37 30 -72 17 -35 30 -71 30 -80 0 -8 4 -23 9 -33 89 -168 245 -758 266 -1005
3 -34 10 -107 16 -162 6 -55 15 -158 19 -230 5 -71 10 -134 11 -140 3 -22 -13
-356 -22 -457 -16 -182 -54 -360 -89 -413 -7 -10 -48 -115 -69 -175 -7 -19
-23 -64 -36 -100 -12 -36 -32 -100 -44 -143 -32 -113 -110 -271 -238 -477 -15
-25 -35 -57 -44 -71 -8 -15 -24 -40 -35 -56 -10 -15 -24 -37 -30 -48 -27 -47
-81 -133 -104 -164 -14 -19 -38 -58 -55 -87 -40 -70 -110 -170 -154 -220 -99
-113 -139 -161 -167 -203 -18 -25 -50 -64 -73 -86 -23 -21 -41 -43 -41 -49 0
-18 -225 -233 -265 -253 -22 -11 -58 -24 -80 -28 -22 -4 -71 -17 -110 -30 -38
-13 -77 -24 -85 -24 -117 -5 -295 -10 -520 -16 -151 -3 -313 -7 -360 -9 -129
-6 -515 -16 -800 -21 -140 -3 -280 -7 -310 -10 -222 -17 -971 -24 -1705 -16
-115 1 -311 -1 -435 -5 -263 -8 -246 -8 -290 -1 -34 6 -55 10 -190 41 -36 9
-90 16 -121 16 -46 0 -71 8 -143 45 -49 25 -92 45 -97 45 -4 0 -20 5 -36 12
-15 6 -41 12 -58 13 -44 3 -112 24 -127 38 -7 7 -28 22 -45 32 -18 11 -33 24
-33 29 0 15 -151 150 -174 156 -11 3 -23 15 -25 25 -2 11 -30 46 -63 78 -33
32 -68 78 -78 103 -19 44 -67 116 -82 122 -5 2 -8 9 -8 16 0 6 -15 35 -34 63
-19 29 -51 87 -72 130 -21 43 -56 110 -79 148 -23 39 -48 88 -56 110 -7 22
-18 47 -24 55 -11 14 -68 130 -150 305 -21 44 -44 87 -51 95 -12 14 -57 127
-53 132 1 2 -8 21 -20 43 -11 22 -21 45 -21 52 0 8 -4 21 -9 31 -14 27 -31 87
-31 108 0 10 -9 54 -19 96 -11 43 -17 87 -14 97 4 18 -16 208 -33 311 -3 19
-8 62 -10 95 -2 33 -10 96 -18 140 -31 172 -41 534 -25 875 5 118 11 222 13
230 1 8 6 38 10 65 16 113 84 415 96 430 5 6 19 47 30 90 21 75 67 204 110
305 75 178 181 404 209 450 5 8 20 38 32 65 12 28 32 63 43 80 11 16 34 56 50
90 16 33 32 62 35 65 11 8 143 257 180 338 18 40 49 103 68 140 49 94 98 233
113 322 13 77 17 378 6 465 -4 28 -22 129 -41 225 -19 96 -37 189 -40 205 -3
17 -12 50 -20 75 -8 25 -21 81 -30 125 -9 44 -19 91 -21 105 -3 14 -5 25 -5
25 1 0 -9 32 -22 70 -13 39 -27 88 -31 110 -4 22 -16 76 -26 120 -26 107 -41
212 -45 315 -2 47 -7 139 -11 205 -16 249 -5 528 31 765 26 167 103 460 165
620 12 30 28 74 36 97 20 59 113 263 130 288 8 11 14 27 14 36 0 9 7 30 15 47
15 28 35 95 56 186 23 94 36 201 54 431 8 108 37 231 70 295 38 74 174 193
263 231 74 30 224 55 269 44 76 -19 218 -25 283 -12 25 5 56 9 69 8 13 -1 29
3 35 8 6 4 20 11 31 14 11 3 58 19 104 36 46 16 86 29 90 28 7 -2 93 29 136
48 116 53 237 105 259 111 14 3 30 12 37 20 6 8 20 14 30 14 10 0 35 7 56 16
64 28 75 32 163 59 47 15 94 32 105 38 30 16 183 56 189 50 3 -3 8 1 12 10 5
14 55 29 138 42 12 2 61 11 110 19 49 9 92 14 94 11 2 -2 14 0 26 5 12 4 58
11 101 15 44 3 81 8 83 10 8 7 275 -4 352 -15z M4290 16866 c-147 -34 -181
-56 -222 -142 -28 -59 -6 -167 45 -222 78 -84 166 -115 307 -109 77 4 109 12
218 53 34 13 69 24 76 24 8 0 26 14 40 31 24 28 26 38 26 118 0 111 -9 137
-68 187 -51 43 -93 64 -132 65 -14 0 -72 2 -130 4 -63 2 -127 -2 -160 -9z
M7749 16876 c-2 -2 -35 -7 -74 -10 -78 -6 -125 -15 -140 -26 -5 -4 -23 -10
-40 -14 -68 -17 -135 -104 -135 -176 0 -152 135 -260 320 -255 106 4 245 32
316 66 50 23 67 38 94 81 38 60 42 113 15 188 -25 71 -50 89 -175 123 -57 16
-173 31 -181 23z M5915 16092 c-11 -2 -63 -19 -115 -37 -116 -40 -251 -120
-306 -181 -38 -41 -51 -65 -86 -154 -6 -14 -14 -33 -19 -42 -23 -46 -44 -201
-31 -223 4 -5 7 -12 7 -15 6 -38 23 -81 46 -118 16 -25 29 -51 29 -58 0 -16
109 -104 130 -104 17 0 81 -28 90 -40 12 -15 91 -48 155 -65 39 -10 82 -28 97
-40 27 -23 109 -37 178 -30 82 9 330 84 445 135 23 10 54 22 70 26 43 10 127
72 169 124 20 25 40 50 45 56 5 6 15 36 22 67 6 32 16 57 21 57 5 0 7 8 4 18
-3 10 -7 38 -7 62 -2 62 -26 166 -51 220 -28 59 -97 140 -156 183 -26 19 -83
48 -127 66 -76 29 -271 75 -285 66 -3 -2 -35 2 -69 9 -35 7 -100 14 -144 15
-45 1 -84 4 -87 5 -3 1 -14 1 -25 -2z M4723 15997 c-26 -13 -55 -118 -78 -276
-25 -171 -18 -338 21 -570 8 -46 12 -86 10 -89 -3 -2 11 -20 31 -38 35 -33 76
-44 88 -24 4 6 12 10 18 9 42 -5 77 38 47 56 -46 28 -82 219 -84 430 0 155 18
296 55 428 11 41 11 49 -2 62 -20 20 -78 27 -106 12z M7302 15998 c-17 -17
-15 -54 8 -122 11 -33 20 -71 20 -86 0 -15 3 -30 8 -34 8 -9 9 -13 18 -178 9
-163 -10 -298 -60 -437 -20 -54 -20 -66 0 -85 20 -20 66 -20 104 -1 22 11 31
25 35 53 4 20 10 48 15 62 34 95 43 162 44 320 1 248 -13 329 -86 476 -18 38
-82 56 -106 32z M8098 13733 c-24 -6 -24 -89 -2 -204 15 -80 15 -112 -2 -239
-8 -64 10 -84 73 -85 26 0 53 3 58 8 6 4 18 13 28 20 27 18 47 196 37 324 -9
114 -12 123 -60 158 -33 24 -83 31 -132 18z M3730 13452 c-37 -18 -36 -15 -30
-102 8 -106 108 -351 183 -443 28 -35 81 -48 118 -30 59 29 62 64 10 124 -48
54 -75 171 -68 286 6 80 4 94 -12 115 -18 21 -22 22 -52 11 -34 -13 -49 -10
-49 12 0 19 -28 45 -48 45 -9 0 -33 -8 -52 -18z M7805 13426 c-11 -16 -12 -31
-3 -66 10 -43 5 -244 -8 -300 -8 -36 22 -69 71 -80 50 -11 74 8 94 77 8 26 25
81 38 121 31 97 30 123 -5 143 -18 10 -31 28 -37 54 -7 27 -19 44 -40 55 -43
24 -93 22 -110 -4z M7461 13286 c-23 -24 -26 -47 -12 -74 17 -33 43 -216 39
-276 -8 -114 -59 -235 -82 -197 -9 14 -59 20 -78 10 -26 -14 -58 -93 -73 -183
-9 -53 -70 -196 -84 -196 -4 0 -21 -13 -39 -29 -51 -47 -40 -90 25 -98 50 -6
85 14 174 101 46 46 73 82 88 119 22 53 23 54 54 47 45 -9 117 18 117 45 0 11
9 48 20 82 24 77 31 143 33 293 1 108 -7 167 -44 312 -16 63 -97 88 -138 44z
M4465 13233 c-16 -3 -36 -9 -42 -15 -16 -13 -17 -88 -2 -143 18 -71 62 -210
69 -220 4 -5 19 -50 35 -100 16 -49 34 -97 40 -105 15 -19 55 -119 55 -135 0
-7 7 -18 15 -25 8 -7 15 -26 15 -42 0 -24 6 -32 43 -47 39 -17 45 -17 82 -3
52 20 65 37 65 88 0 24 4 46 10 49 5 3 25 -25 44 -63 19 -37 42 -74 51 -82 17
-14 54 -90 74 -152 11 -34 16 -38 47 -38 62 0 185 76 205 127 5 12 13 23 18
23 5 0 24 -25 43 -56 18 -32 38 -64 43 -73 6 -9 32 -52 59 -96 26 -44 52 -82
55 -85 4 -3 26 -32 48 -65 50 -73 88 -115 105 -115 64 0 144 49 184 111 13 22
28 37 33 35 4 -3 28 -40 53 -83 98 -169 168 -212 255 -157 26 16 62 82 92 169
21 60 17 87 -14 99 -26 9 -105 -33 -116 -62 -4 -11 -16 -22 -28 -25 -15 -4
-28 7 -59 53 -22 32 -43 71 -46 87 -9 41 -55 82 -96 87 -40 5 -67 -10 -131
-71 l-45 -43 -77 77 c-76 77 -159 191 -217 298 -16 30 -30 60 -30 65 0 6 -9
30 -21 55 -21 44 -22 45 -71 45 -48 0 -51 -2 -123 -75 -40 -41 -77 -75 -83
-75 -13 0 -67 90 -82 136 -7 22 -33 83 -59 137 l-46 98 -58 -4 c-33 -2 -62 -8
-65 -13 -4 -5 -19 -17 -34 -26 -14 -10 -29 -27 -33 -38 -11 -34 -23 -22 -44
43 -19 61 -39 113 -67 174 -13 28 -32 114 -49 215 -3 21 -13 44 -21 53 -15 15
-23 16 -79 8z M6817 12462 c-10 -10 -14 -21 -11 -24 3 -4 1 -15 -5 -26 -6 -11
-12 -55 -15 -98 -4 -73 -45 -226 -66 -248 -4 -4 -17 12 -28 38 -16 34 -27 47
-49 51 -15 4 -36 10 -45 16 -12 6 -18 6 -18 -1 0 -5 -6 -10 -13 -10 -21 0 -52
-40 -84 -110 -16 -36 -48 -86 -70 -112 -47 -53 -47 -80 -4 -98 43 -17 114 4
150 46 l29 33 40 -63 c39 -62 41 -64 88 -68 44 -3 52 -1 82 29 63 63 90 146
113 342 11 97 25 195 30 219 10 47 1 75 -31 92 -29 16 -75 12 -93 -8z M3717
10311 c-40 -22 -47 -31 -47 -57 0 -51 37 -153 81 -219 10 -16 22 -38 25 -47 4
-10 10 -18 15 -18 5 0 14 -11 19 -25 13 -34 48 -46 82 -29 15 8 34 14 43 14 8
0 15 7 15 15 0 8 4 15 10 15 15 0 3 77 -19 123 -24 49 -44 143 -36 168 3 10 1
20 -5 24 -5 3 -10 15 -10 25 0 25 -19 29 -58 13 -28 -12 -33 -11 -38 1 -10 25
-29 25 -77 -3z M8150 10244 c-6 -14 -10 -35 -10 -46 0 -21 -45 -204 -60 -243
-4 -11 -17 -41 -29 -68 -28 -62 -27 -68 14 -95 46 -32 81 -23 128 33 51 60 72
100 92 170 18 60 23 77 44 128 21 52 20 53 -52 115 -29 24 -47 32 -78 32 -33
0 -41 -4 -49 -26z M3451 10101 c-13 -3 -33 -18 -44 -33 -18 -24 -18 -31 -7
-94 6 -38 20 -85 30 -104 10 -19 28 -56 40 -82 13 -27 27 -48 32 -48 5 0 12
-8 15 -17 14 -39 76 -103 99 -103 56 0 98 37 110 98 4 22 -2 36 -34 72 -22 25
-51 70 -66 100 -15 30 -32 63 -38 74 -5 10 -16 40 -24 67 -11 36 -22 51 -46
63 -17 9 -34 16 -37 15 -3 -1 -17 -4 -30 -8z M8508 10079 c-10 -5 -18 -20 -18
-33 0 -35 -38 -176 -61 -226 -33 -71 -107 -195 -129 -215 -26 -24 -25 -47 3
-73 35 -33 83 -44 117 -27 39 20 137 130 188 211 24 38 66 104 93 148 28 43
49 85 47 94 -2 9 -25 28 -52 42 -28 14 -58 33 -68 42 -16 16 -82 48 -97 48 -3
0 -14 -5 -23 -11z M3163 9939 c-20 -13 -34 -32 -38 -52 -4 -18 -14 -40 -22
-49 -12 -13 -14 -30 -9 -64 3 -26 10 -52 15 -58 4 -6 12 -22 17 -36 14 -40
117 -190 169 -249 48 -52 50 -53 94 -48 56 6 89 42 88 95 -1 28 -7 39 -30 51
-21 12 -45 50 -93 146 -35 72 -77 164 -92 205 -31 84 -46 93 -99 59z M8776
9888 c-17 -66 -59 -190 -74 -218 -54 -103 -126 -228 -143 -246 -25 -26 -24
-46 2 -70 38 -34 69 -42 114 -26 77 26 159 124 253 303 67 126 68 145 13 177
-17 9 -32 24 -34 34 -11 39 -122 78 -131 46z M2915 9702 c-16 -9 -50 -23 -74
-32 -38 -13 -46 -22 -54 -50 -6 -24 -5 -41 4 -55 7 -11 34 -65 62 -120 52
-105 104 -179 174 -248 72 -70 108 -97 130 -97 41 0 91 27 107 59 16 30 16 30
-25 63 -23 18 -47 44 -55 58 -8 14 -23 39 -34 55 -11 17 -34 57 -51 90 -17 33
-38 74 -47 90 -9 17 -28 63 -42 104 -30 89 -51 107 -95 83z M9082 9504 c-95
-154 -147 -205 -247 -244 -22 -9 -41 -23 -43 -33 -5 -23 21 -78 45 -98 54 -43
86 -48 123 -19 14 11 29 20 33 20 5 0 23 11 41 25 18 14 36 25 41 25 4 0 25
15 46 33 21 17 68 57 105 87 108 88 116 97 112 132 -4 42 -47 75 -77 59 -18
-10 -21 -9 -21 9 0 29 -55 80 -86 80 -20 0 -33 -14 -72 -76z M12325 17925 c-5
-2 -44 -6 -85 -9 -41 -2 -93 -7 -115 -10 -22 -2 -72 -7 -110 -10 -39 -3 -92
-12 -119 -20 -27 -8 -53 -13 -58 -10 -5 3 -15 0 -23 -6 -8 -7 -26 -9 -40 -6
-14 4 -25 3 -25 -2 0 -8 -131 -63 -241 -101 -75 -25 -110 -44 -177 -96 -60
-46 -206 -194 -257 -260 -16 -21 -58 -68 -91 -104 -34 -36 -75 -82 -90 -101
-16 -19 -35 -41 -41 -48 -7 -7 -13 -18 -13 -24 0 -12 -36 -60 -72 -96 -14 -15
-49 -65 -77 -112 -28 -47 -55 -90 -61 -97 -5 -7 -10 -16 -10 -22 0 -5 -3 -11
-7 -13 -12 -5 -63 -111 -63 -130 0 -9 -4 -19 -9 -22 -4 -3 -11 -25 -15 -48 -4
-24 -11 -56 -16 -73 -37 -125 -87 -453 -95 -631 -9 -188 -7 -427 3 -455 5 -13
7 -30 5 -37 -3 -7 2 -35 11 -63 9 -27 14 -54 11 -58 -8 -14 20 -147 48 -226
13 -38 34 -100 46 -138 18 -59 27 -81 50 -123 18 -33 66 -99 103 -142 24 -28
61 -71 83 -98 22 -26 52 -60 68 -75 15 -15 27 -30 27 -33 0 -3 16 -22 35 -43
20 -21 57 -69 83 -107 55 -81 193 -204 270 -241 l52 -26 0 -132 c1 -76 7 -164
16 -207 8 -41 17 -93 20 -115 2 -22 11 -62 19 -90 8 -27 18 -70 24 -95 25
-119 71 -282 95 -340 15 -36 42 -105 61 -155 18 -49 43 -112 55 -140 71 -154
73 -378 5 -655 -19 -74 -36 -155 -40 -180 -7 -55 -68 -175 -150 -295 -33 -48
-64 -94 -70 -103 -5 -9 -27 -38 -47 -65 -21 -26 -42 -65 -48 -86 -5 -21 -23
-58 -40 -82 -16 -24 -30 -51 -30 -60 0 -8 -4 -19 -9 -25 -14 -14 -151 -286
-151 -299 0 -7 -8 -23 -18 -36 -10 -13 -24 -44 -32 -69 -7 -25 -16 -49 -20
-55 -4 -5 -13 -30 -20 -55 -8 -25 -19 -54 -26 -65 -17 -28 -54 -183 -69 -290
-7 -49 -22 -151 -34 -225 -13 -88 -19 -157 -15 -200 3 -41 -1 -99 -12 -160
-17 -93 -19 -160 -15 -385 2 -60 2 -175 2 -255 -1 -231 18 -422 53 -535 1 -5
6 -27 11 -48 4 -20 11 -40 16 -43 5 -3 7 -15 4 -27 -4 -14 11 -60 40 -125 25
-56 45 -109 45 -117 0 -8 11 -36 24 -62 44 -85 77 -156 111 -238 18 -44 45
-100 59 -125 14 -25 30 -55 36 -68 5 -13 21 -38 35 -56 14 -18 25 -38 25 -44
0 -6 13 -33 28 -59 16 -26 50 -91 76 -143 27 -52 66 -122 87 -156 22 -34 39
-64 39 -68 0 -3 23 -34 50 -68 28 -34 50 -66 50 -70 0 -5 15 -25 34 -46 116
-128 146 -163 146 -171 0 -5 31 -30 69 -56 37 -25 79 -57 91 -70 13 -14 30
-25 38 -25 8 0 42 -14 76 -32 33 -17 73 -37 88 -45 14 -7 37 -13 51 -13 13 0
44 -7 67 -15 23 -8 58 -15 76 -15 19 0 91 -11 161 -24 131 -25 271 -40 333
-37 19 1 175 3 345 5 171 2 396 6 500 9 105 4 279 9 389 12 109 3 202 7 206
10 4 2 232 7 506 10 275 3 501 6 504 6 3 1 9 1 14 0 36 -7 1284 4 1371 12 28
2 70 10 95 17 25 6 61 16 80 21 21 5 61 33 103 71 37 35 99 89 137 121 39 32
89 81 111 110 23 29 51 59 64 67 42 29 80 65 105 100 13 19 50 62 81 95 83 88
122 134 144 172 11 18 41 65 68 103 164 242 170 252 227 365 22 44 45 87 50
95 22 35 110 231 110 244 0 9 20 57 44 108 65 139 104 239 120 310 8 35 24 99
35 143 12 44 26 96 31 115 23 89 41 179 42 211 0 19 5 39 10 45 8 11 10 26 25
164 12 112 4 338 -16 460 -11 74 -47 226 -72 314 -12 39 -38 136 -59 216 -21
80 -47 172 -58 205 -11 33 -32 101 -47 150 -15 50 -31 95 -35 100 -4 6 -10 24
-14 40 -4 17 -13 44 -21 60 -14 30 -62 142 -87 203 -7 17 -16 32 -20 32 -5 0
-8 7 -8 15 0 14 -37 89 -93 187 -13 24 -68 129 -122 233 -53 105 -102 197
-109 205 -7 8 -25 38 -41 65 -15 28 -43 73 -61 102 -19 28 -34 55 -34 59 0 4
-11 30 -24 58 -87 185 -120 275 -136 379 -15 90 -9 183 14 224 9 15 22 46 29
68 8 22 23 67 35 100 11 33 28 87 37 120 9 33 21 70 26 82 5 13 16 53 24 90 9
38 27 102 40 143 14 41 30 100 36 130 18 96 20 102 40 187 10 46 19 97 19 114
0 17 4 38 9 47 19 36 41 243 41 385 0 85 4 147 9 147 11 0 161 127 208 176 18
19 37 34 42 34 11 0 136 147 166 195 31 50 73 126 106 195 65 136 81 167 114
220 19 30 37 69 41 85 3 17 10 35 14 40 4 6 20 39 35 75 33 82 61 243 75 435
10 143 13 637 5 700 -3 17 -7 55 -10 85 -3 30 -10 69 -14 85 -5 17 -12 47 -16
69 -3 21 -11 50 -17 65 -6 14 -12 31 -12 36 -1 6 -7 20 -13 31 -7 12 -10 23
-8 26 5 5 -27 70 -80 163 -19 33 -47 92 -61 130 -20 51 -41 83 -78 121 -61 60
-143 149 -172 187 -12 15 -24 27 -28 27 -3 0 -22 17 -43 38 -71 70 -219 203
-245 220 -14 9 -41 29 -60 44 -36 28 -122 79 -178 105 -19 8 -47 22 -62 29
-74 39 -308 101 -443 118 -16 2 -68 9 -115 16 -82 12 -172 13 -350 7 -87 -4
-406 -43 -421 -53 -5 -3 -61 -14 -125 -25 -63 -10 -124 -24 -134 -29 -11 -6
-41 -14 -67 -19 -53 -10 -100 -31 -212 -91 -40 -22 -77 -40 -82 -40 -4 0 -27
-13 -51 -29 -24 -16 -58 -32 -75 -36 -18 -3 -35 -11 -38 -16 -4 -5 -15 -9 -26
-9 -10 0 -19 -7 -19 -15 0 -8 -17 -19 -40 -26 -22 -7 -45 -18 -51 -26 -6 -7
-17 -13 -25 -13 -7 0 -28 -15 -46 -32 -18 -18 -59 -52 -90 -75 -32 -24 -58
-46 -58 -50 -1 -5 -9 -19 -20 -31 -17 -21 -23 -22 -52 -13 -36 11 -106 22
-153 24 -52 2 -204 -13 -229 -23 -23 -8 -72 -14 -196 -24 -35 -3 -64 1 -80 9
-17 9 -30 10 -43 3 -16 -8 -27 -3 -61 29 -67 64 -303 243 -320 243 -6 0 -14 6
-74 57 -15 13 -30 23 -34 23 -12 0 -176 97 -193 114 -9 9 -21 16 -26 16 -6 0
-31 14 -56 31 -25 18 -65 38 -89 45 -23 7 -51 17 -61 22 -48 26 -345 59 -592
67 -91 3 -179 7 -196 9 -16 3 -34 3 -40 1z m385 -210 c200 -35 223 -40 325
-73 165 -55 225 -80 390 -165 17 -8 46 -22 65 -31 73 -34 116 -60 288 -175
131 -87 143 -100 201 -210 42 -81 42 -82 31 -139 -26 -128 -60 -191 -154 -290
-48 -50 -145 -122 -165 -122 -5 0 -18 -10 -28 -22 -10 -13 -27 -25 -38 -26
-11 -2 -27 -10 -35 -17 -8 -7 -35 -19 -60 -28 -25 -9 -63 -23 -86 -31 -22 -8
-51 -13 -65 -11 -48 6 -224 48 -234 55 -5 4 -28 13 -50 20 -22 7 -45 17 -51
22 -14 10 -103 33 -164 42 -74 10 -380 8 -455 -3 -89 -13 -265 -65 -328 -97
-27 -13 -55 -24 -62 -24 -32 0 -325 -219 -376 -280 -19 -23 -48 -56 -65 -73
-17 -18 -52 -65 -78 -105 -26 -39 -51 -72 -54 -72 -4 0 -13 -15 -21 -32 -8
-18 -33 -60 -57 -93 -41 -59 -58 -92 -105 -210 -22 -56 -24 -73 -24 -240 l0
-180 38 -120 c21 -66 42 -133 48 -150 5 -16 28 -86 50 -155 22 -69 49 -142 59
-163 11 -21 20 -43 20 -51 0 -14 73 -160 108 -216 26 -41 29 -92 7 -110 -27
-23 -169 -6 -245 28 -55 25 -77 42 -139 115 -40 48 -85 95 -99 106 -32 23 -25
36 12 21 37 -14 113 -12 157 3 55 19 104 60 96 80 -5 14 -20 17 -82 17 -41 0
-83 5 -93 11 -12 8 -38 9 -75 5 -45 -6 -57 -12 -64 -29 -4 -12 -6 -25 -5 -29
1 -5 -4 -8 -12 -8 -8 0 -31 21 -52 47 -22 26 -51 61 -66 78 -15 17 -30 43 -33
57 -4 15 -13 29 -21 32 -8 3 -14 11 -14 19 0 7 -22 37 -49 65 -49 53 -82 109
-100 172 -5 19 -21 71 -34 115 -13 44 -30 105 -36 135 -7 30 -19 75 -27 100
-7 25 -20 95 -29 155 -18 139 -13 545 9 650 8 39 17 106 21 150 4 44 15 105
25 135 10 30 21 72 25 94 3 21 10 46 15 55 4 9 16 39 25 66 17 47 71 154 85
165 3 3 19 27 35 55 16 27 32 54 37 60 5 5 38 51 75 100 36 50 76 99 87 110
12 11 41 47 63 80 42 62 193 225 208 225 7 0 45 29 138 106 35 29 151 96 187
109 20 7 57 22 83 34 26 12 70 26 98 31 28 5 54 12 58 14 9 6 204 42 326 62
122 19 361 10 535 -21z m3840 23 c16 0 91 -11 195 -30 159 -28 439 -120 576
-188 203 -103 306 -185 527 -425 42 -46 91 -113 117 -160 15 -27 32 -57 39
-65 33 -41 86 -181 112 -295 4 -16 10 -34 14 -40 12 -16 67 -204 80 -275 38
-202 45 -567 15 -730 -8 -41 -22 -120 -30 -175 -18 -110 -52 -241 -85 -325
-12 -30 -33 -86 -47 -125 -14 -38 -31 -77 -39 -86 -8 -8 -14 -20 -14 -25 0 -5
-27 -48 -60 -94 -34 -47 -76 -107 -95 -135 -19 -27 -43 -61 -52 -75 -10 -14
-23 -28 -29 -32 -7 -4 -14 -19 -18 -32 -12 -49 -235 -216 -289 -216 -9 0 -26
-11 -39 -23 -26 -27 -65 -43 -125 -51 -69 -10 -63 7 52 164 56 76 125 206 125
235 0 9 14 48 30 87 17 38 30 81 30 94 0 13 6 38 14 56 23 53 87 260 92 298 2
19 9 55 14 80 6 25 12 104 14 175 3 105 0 141 -14 185 -10 30 -26 86 -35 124
-10 37 -32 89 -50 115 -17 27 -38 70 -45 97 -7 27 -19 53 -27 57 -7 4 -19 23
-27 40 -7 18 -27 47 -45 64 -17 17 -31 34 -31 37 0 22 -83 120 -123 146 -26
16 -50 30 -53 30 -11 0 -120 73 -149 100 -34 31 -194 120 -217 120 -9 0 -22 7
-29 17 -36 43 -265 95 -404 92 -49 -1 -146 -2 -215 -3 -69 -1 -130 -4 -136 -8
-10 -6 -111 -22 -219 -33 -34 -4 -75 -15 -200 -55 -207 -66 -338 -35 -519 124
-87 75 -105 96 -161 171 -64 89 -95 156 -95 207 0 53 24 130 57 178 12 19 23
44 23 56 0 21 116 138 155 155 25 11 47 25 106 67 26 17 50 32 54 32 5 0 33
12 64 27 96 45 255 114 285 123 16 5 39 16 52 25 13 8 37 15 54 15 17 0 47 8
68 19 48 24 216 67 317 80 44 6 94 13 110 15 17 2 93 2 170 -1 77 -3 147 -5
155 -5z m-1955 -628 c28 -5 63 -13 79 -19 25 -10 27 -15 20 -39 -12 -43 -11
-143 2 -188 32 -109 151 -267 280 -372 81 -66 227 -147 317 -176 52 -17 209
-36 257 -31 19 2 76 6 127 9 51 3 109 10 130 15 21 5 56 14 78 20 170 43 254
55 371 56 74 0 85 -3 125 -30 24 -16 72 -58 107 -92 35 -35 66 -63 69 -63 18
0 110 -101 190 -207 50 -68 93 -126 95 -130 2 -5 29 -47 60 -94 31 -47 87
-144 123 -215 37 -71 71 -134 76 -140 5 -6 34 -60 65 -120 30 -60 62 -116 70
-125 8 -8 14 -22 14 -30 0 -8 6 -23 14 -34 33 -49 64 -158 91 -320 4 -24 -17
-74 -99 -240 -137 -279 -152 -311 -164 -370 -28 -127 -5 -169 102 -189 62 -12
73 -12 120 6 28 11 58 26 67 34 28 25 49 17 49 -18 -1 -30 -15 -147 -25 -208
-3 -14 -6 -41 -9 -60 -3 -19 -11 -64 -19 -100 -9 -36 -25 -110 -37 -165 -12
-55 -28 -113 -36 -128 -8 -16 -14 -40 -14 -53 0 -14 -7 -38 -14 -53 -8 -15
-15 -37 -15 -47 0 -10 -9 -46 -21 -79 -12 -33 -30 -89 -40 -125 -10 -36 -25
-85 -34 -110 -30 -93 -70 -247 -73 -290 -3 -25 -13 -76 -24 -115 -25 -92 -25
-186 2 -261 11 -32 27 -86 35 -119 9 -33 20 -64 25 -70 5 -5 9 -16 9 -24 0
-29 91 -210 132 -262 15 -20 28 -42 28 -47 0 -6 11 -23 24 -39 13 -15 27 -39
31 -51 4 -13 21 -44 38 -68 56 -78 71 -101 112 -169 22 -36 51 -82 64 -103 47
-73 73 -130 142 -308 38 -100 69 -184 69 -187 0 -3 15 -38 33 -79 37 -81 49
-112 67 -178 7 -25 26 -78 41 -119 16 -40 29 -83 29 -94 0 -11 4 -36 9 -56 10
-39 33 -150 50 -246 6 -33 15 -100 20 -150 11 -117 7 -504 -7 -575 -6 -30 -13
-86 -16 -125 -8 -106 -27 -268 -33 -278 -2 -4 -8 -40 -13 -80 -7 -59 -36 -204
-54 -267 -2 -8 -13 -46 -24 -85 -54 -190 -79 -254 -186 -475 -31 -63 -56 -121
-56 -128 0 -14 -12 -36 -57 -109 -18 -28 -33 -54 -33 -56 0 -10 -103 -162
-112 -165 -4 -2 -8 -8 -8 -14 0 -15 -85 -129 -124 -167 -20 -19 -36 -38 -36
-41 0 -10 -66 -82 -210 -230 -74 -76 -154 -160 -178 -188 -23 -27 -59 -58 -80
-67 -20 -9 -55 -26 -77 -38 -22 -11 -69 -24 -105 -28 -36 -4 -93 -12 -127 -18
-34 -6 -124 -13 -200 -16 -76 -2 -192 -10 -258 -18 -129 -14 -437 -15 -785 -2
-113 5 -212 8 -220 8 -277 -6 -566 -15 -755 -23 -132 -6 -310 -13 -395 -16
-409 -15 -1022 4 -1154 35 -22 6 -44 8 -48 5 -4 -3 -14 -2 -20 2 -7 5 -46 9
-88 11 -41 1 -88 4 -105 7 -16 3 -51 8 -77 11 -27 4 -80 22 -119 41 -38 19
-74 34 -79 34 -6 0 -10 4 -10 9 0 5 -30 30 -67 54 -38 25 -88 65 -113 89 -25
23 -86 81 -135 129 -81 76 -333 363 -345 392 -7 16 -81 131 -89 137 -15 12
-181 339 -181 356 0 8 -18 49 -39 92 -21 42 -42 88 -46 102 -4 14 -23 58 -41
98 -19 40 -34 76 -34 80 0 4 -13 39 -29 78 -42 103 -80 255 -97 384 -16 129
-24 207 -30 295 -7 113 -7 652 0 664 3 4 8 39 11 77 20 215 81 558 121 684 8
25 14 53 14 63 0 31 91 290 133 377 22 47 59 114 82 150 23 36 44 72 48 80 4
8 18 33 32 55 14 22 28 47 32 55 10 22 135 232 145 245 29 35 89 142 117 210
19 44 45 104 57 133 13 29 24 56 24 60 0 4 9 25 21 46 11 22 27 71 35 109 8
39 18 75 21 80 6 10 15 169 14 252 -2 94 -31 213 -96 390 -20 55 -49 138 -65
185 -15 47 -40 112 -55 145 -80 176 -141 495 -140 730 l0 90 35 1 c68 2 186
27 222 47 32 17 37 26 43 68 9 65 -3 154 -30 214 -12 28 -25 62 -29 78 -3 15
-32 80 -64 145 -54 112 -57 120 -56 192 3 153 18 269 44 325 31 68 47 107 70
175 52 148 239 498 328 613 161 207 204 259 253 307 53 52 155 137 252 208
l45 33 128 -2 c90 -1 152 -8 203 -21 75 -19 223 -81 251 -104 23 -19 126 -30
144 -15 8 7 36 14 63 16 52 4 163 30 191 45 35 18 109 50 116 50 5 0 38 22 75
48 36 27 77 55 91 62 47 25 125 92 151 130 14 20 42 57 62 80 71 84 109 245
84 361 -8 38 -9 37 66 69 70 30 256 40 372 20z m-2375 -828 c0 -4 -30 -35 -67
-67 -38 -33 -102 -92 -143 -132 -41 -40 -82 -78 -92 -85 -40 -31 -203 -237
-243 -308 -22 -38 -22 -39 -56 -130 -17 -47 -44 -121 -61 -165 -16 -44 -33
-100 -38 -125 -4 -25 -15 -74 -23 -110 -9 -36 -19 -87 -24 -113 -4 -27 -12
-49 -17 -50 -11 -2 -35 77 -43 138 -6 45 8 143 47 319 13 58 64 164 123 257
23 37 56 88 72 114 73 116 251 325 276 325 5 0 35 18 67 40 32 21 92 53 133
69 83 33 89 34 89 23z m4813 -179 c51 -35 103 -78 161 -131 114 -105 240 -343
252 -474 2 -20 12 -72 23 -115 24 -93 39 -307 23 -317 -15 -9 -28 19 -36 76
-4 26 -11 50 -16 53 -5 3 -19 38 -31 78 -23 72 -89 208 -115 238 -8 8 -14 20
-14 26 0 6 -25 45 -55 88 -30 42 -55 78 -55 81 0 6 -4 11 -71 89 -28 33 -59
76 -69 96 -10 19 -35 55 -56 80 -33 39 -69 89 -99 138 -5 9 -36 40 -67 70 -32
30 -58 60 -58 68 0 16 198 -85 283 -144z M11997 17575 c-15 -8 -34 -21 -43
-30 -8 -8 -18 -15 -22 -15 -16 0 -52 -89 -62 -150 -13 -83 -13 -207 0 -288 11
-65 13 -71 45 -132 10 -19 26 -51 36 -70 10 -19 42 -54 71 -77 62 -47 104 -52
140 -15 18 18 20 25 11 44 -22 44 -92 274 -103 336 -14 81 2 184 42 266 21 42
17 86 -7 86 -8 0 -15 6 -15 14 0 15 -37 46 -55 46 -5 0 -22 -7 -38 -15z
M12630 17529 c-83 -73 -96 -89 -122 -141 -36 -72 -69 -291 -58 -393 10 -96 43
-171 82 -184 43 -15 101 -14 123 3 18 13 18 15 1 74 -44 143 28 455 125 547
16 16 29 36 29 44 -1 21 -68 63 -90 56 -9 -3 -23 1 -30 10 -17 20 -19 19 -60
-16z M13419 17295 c-13 -7 -37 -19 -52 -26 -15 -7 -59 -39 -97 -71 -60 -51
-74 -69 -118 -160 -62 -127 -69 -151 -71 -258 l-2 -85 31 -14 c37 -16 118 -10
131 10 5 8 6 22 3 32 -16 52 38 192 121 315 65 96 75 106 128 137 54 31 61 59
25 91 -39 34 -71 44 -99 29z M11385 17274 c-5 -1 -22 -5 -37 -8 -44 -10 -63
-56 -62 -156 1 -78 22 -174 44 -205 4 -5 17 -40 29 -76 36 -110 104 -190 186
-218 22 -8 45 -20 50 -27 6 -7 26 -15 45 -19 28 -4 41 -1 64 18 l30 24 -22 34
c-11 19 -45 58 -75 86 -58 56 -120 162 -156 270 -17 50 -21 84 -19 162 1 55 0
102 -3 105 -7 7 -59 14 -74 10z M10951 16648 c-72 -38 -86 -183 -29 -293 27
-50 129 -145 185 -170 28 -13 54 -28 57 -33 9 -14 168 -3 184 12 32 31 -24 98
-125 150 -86 44 -134 125 -141 238 -2 43 -10 82 -16 87 -21 17 -89 22 -115 9z
M10755 16066 c-28 -23 -29 -24 -16 -67 21 -74 49 -126 88 -166 56 -56 72 -67
138 -91 105 -39 205 -27 205 24 0 29 -17 41 -75 54 -28 5 -59 12 -70 15 -53
12 -122 105 -131 177 -7 52 -14 58 -80 71 -23 4 -37 0 -59 -17z M10731 15471
c-24 -19 -24 -22 3 -70 19 -32 74 -81 92 -81 8 0 14 -4 14 -8 0 -13 101 -36
152 -34 64 3 138 35 138 61 0 26 -23 37 -85 40 -95 4 -141 24 -165 71 -18 35
-21 37 -72 38 -39 2 -60 -3 -77 -17z M10901 14958 c-26 -9 -55 -54 -47 -73 13
-35 60 -50 152 -49 76 0 97 4 142 27 90 47 59 90 -56 80 -44 -4 -66 -2 -78 8
-18 15 -82 19 -113 7z M16736 17551 c-23 -25 -20 -63 10 -118 23 -43 25 -59
25 -158 0 -133 -14 -243 -41 -339 -25 -87 -43 -120 -87 -167 -42 -45 -40 -68
8 -91 63 -32 120 4 183 116 16 28 36 60 45 71 24 29 49 87 82 190 30 93 35
166 20 240 -5 22 -17 77 -26 122 -16 75 -20 83 -46 92 -16 5 -29 16 -29 24 0
9 -15 18 -37 22 -69 14 -91 13 -107 -4z M16044 17508 c-3 -4 -14 -8 -24 -8
-10 0 -26 -7 -34 -16 -17 -17 -22 -64 -7 -64 21 0 93 -103 117 -167 23 -60 27
-87 31 -228 4 -121 1 -176 -10 -225 -18 -75 -13 -86 41 -93 94 -11 128 61 143
303 8 142 7 163 -11 234 -11 43 -35 108 -55 144 -19 37 -35 72 -35 78 0 14
-23 24 -55 24 -13 0 -26 4 -29 9 -8 12 -66 20 -72 9z M15355 17334 c-62 -32
-60 -51 16 -121 57 -54 78 -88 124 -198 36 -86 58 -173 60 -241 4 -106 8 -114
60 -114 70 0 92 15 99 67 20 147 -17 317 -97 448 -21 35 -131 145 -159 160
-35 19 -66 19 -103 -1z M17388 17171 c-5 -14 -6 -47 -3 -72 15 -110 -49 -238
-188 -373 -34 -34 -76 -71 -94 -84 -31 -22 -38 -50 -20 -79 4 -6 4 -18 1 -26
-8 -22 24 -36 85 -38 41 -2 58 3 92 26 50 35 129 117 148 153 8 15 25 41 38
58 12 17 23 35 23 41 0 5 13 37 30 70 39 82 60 167 60 247 0 88 -19 107 -103
104 -53 -2 -60 -5 -69 -27z M17800 16631 c-5 -11 -10 -32 -10 -46 0 -44 -71
-166 -132 -227 -32 -32 -63 -58 -68 -58 -6 0 -28 -12 -50 -26 -47 -31 -51 -59
-16 -97 21 -23 29 -25 95 -22 57 2 78 7 97 24 13 11 27 21 30 21 20 0 143 144
167 196 16 32 32 66 37 74 4 9 11 35 15 59 9 53 -11 79 -68 88 -21 3 -41 12
-44 19 -8 21 -41 17 -53 -5z M18013 16083 c-7 -2 -13 -11 -13 -18 0 -19 -67
-75 -114 -96 -23 -9 -67 -20 -99 -24 -95 -12 -116 -43 -68 -104 16 -20 28 -24
85 -26 37 -1 69 2 72 7 3 4 19 8 35 8 79 0 249 123 249 180 0 34 -24 56 -73
64 -21 4 -44 9 -50 11 -7 2 -18 1 -24 -2z M17995 15505 c-22 -8 -65 -15 -96
-15 -71 0 -108 -24 -90 -57 6 -12 27 -31 47 -44 34 -21 40 -21 126 -11 50 6
101 18 114 27 35 23 31 57 -10 89 -40 30 -38 30 -91 11z M17768 15068 c-7 -21
3 -56 23 -77 22 -24 73 -40 149 -48 62 -6 83 7 73 45 -6 25 -69 62 -105 62
-13 1 -34 7 -48 15 -31 18 -87 19 -92 3z M17577 14649 c-23 -32 -13 -62 29
-91 134 -95 237 -88 143 9 -80 82 -149 115 -172 82z M12918 14945 c-2 -2 -57
-6 -123 -10 -154 -8 -187 -12 -233 -25 -20 -5 -48 -10 -61 -10 -29 0 -61 -35
-61 -66 0 -12 -2 -29 -6 -37 -4 -12 22 -42 106 -117 86 -77 313 -115 565 -96
119 10 198 28 240 57 81 55 149 165 137 224 -6 35 -56 65 -102 63 -19 -1 -93
2 -165 6 -151 9 -293 14 -297 11z M16177 14919 c-15 -4 -114 -8 -220 -9 -105
-1 -212 -3 -237 -5 -267 -17 -280 -21 -280 -81 0 -37 45 -88 93 -106 15 -5 27
-14 27 -19 0 -5 6 -9 14 -9 7 0 34 -11 60 -25 101 -54 201 -74 386 -77 114 -2
226 27 318 84 48 29 68 52 97 115 33 69 32 87 -9 118 -32 25 -41 26 -128 24
-51 -1 -106 -6 -121 -10z M14708 14710 c-30 -19 -48 -37 -48 -49 0 -23 52 -69
83 -75 12 -2 51 -9 87 -15 36 -7 83 -20 105 -31 22 -10 78 -30 125 -44 47 -14
97 -34 112 -43 141 -93 198 -138 238 -190 152 -196 206 -343 226 -610 11 -157
-28 -306 -141 -538 -72 -148 -139 -233 -269 -342 -45 -38 -89 -76 -100 -85
-35 -32 -89 -50 -182 -63 -94 -14 -126 -28 -169 -75 l-20 -22 24 -19 c26 -21
84 -25 127 -9 15 6 68 19 118 30 50 11 111 29 136 39 25 10 64 27 88 36 23 10
42 21 42 24 0 3 19 14 43 25 24 11 57 37 77 63 19 25 40 50 45 57 6 6 18 27
28 48 9 20 32 55 51 77 19 23 38 56 42 73 3 18 20 52 35 75 16 23 29 46 29 52
0 5 10 26 21 46 43 73 117 299 124 380 2 28 8 86 13 130 15 123 3 242 -33 330
-7 17 -18 46 -26 65 -13 35 -50 101 -79 144 -8 12 -28 44 -45 72 -34 56 -188
212 -249 252 -67 44 -78 50 -144 83 -34 17 -65 35 -68 40 -3 6 -14 7 -25 4
-11 -4 -42 4 -73 19 -29 14 -68 27 -87 29 -19 2 -41 7 -49 9 -8 3 -40 10 -70
16 -30 6 -64 14 -75 17 -12 3 -38 -6 -67 -25z M14029 14675 c-3 -2 -21 -5 -40
-6 -43 -2 -167 -38 -175 -50 -3 -5 -9 -7 -14 -4 -5 3 -26 -3 -47 -13 -21 -11
-63 -32 -93 -47 -108 -52 -149 -85 -285 -221 -169 -170 -265 -311 -326 -479
-16 -44 -33 -87 -36 -95 -4 -8 -14 -57 -23 -109 -14 -83 -15 -105 -2 -190 12
-85 32 -148 62 -203 6 -10 10 -25 10 -33 0 -31 49 -112 100 -165 28 -30 58
-66 65 -80 8 -14 39 -45 69 -70 31 -25 56 -49 56 -53 0 -25 233 -217 263 -217
9 0 31 -13 49 -28 18 -15 64 -43 103 -61 70 -34 70 -34 185 -28 111 5 149 12
151 26 0 3 3 18 5 34 3 18 0 27 -8 27 -42 1 -154 22 -177 34 -14 7 -49 25 -77
39 -28 15 -77 42 -110 61 -32 19 -77 45 -99 58 -35 21 -178 157 -246 234 -47
53 -108 149 -138 217 -31 69 -61 228 -61 323 0 69 24 199 51 269 39 105 167
304 253 393 119 125 387 292 467 292 11 0 29 5 40 10 11 6 36 13 57 16 59 7
109 23 121 38 12 14 5 46 -10 46 -5 0 -18 9 -29 20 -14 14 -33 20 -63 20 -24
0 -46 -2 -48 -5z M13972 14293 c-85 -34 -86 -37 -81 -203 2 -42 19 -143 30
-175 6 -16 34 -77 62 -134 39 -76 61 -110 87 -127 19 -13 53 -36 75 -51 30
-20 56 -28 103 -31 80 -6 86 -16 79 -131 -8 -127 -29 -174 -102 -224 l-60 -41
-120 0 c-106 0 -125 2 -165 23 -86 44 -112 60 -134 80 -23 22 -92 28 -144 14
-44 -11 -49 -93 -7 -93 8 0 15 -4 15 -10 0 -5 9 -10 20 -10 11 0 29 -9 40 -20
11 -11 28 -20 38 -20 11 0 25 -16 37 -42 12 -26 34 -50 56 -63 19 -11 56 -33
82 -49 26 -15 62 -32 80 -37 208 -54 227 -58 324 -54 125 5 184 11 213 20 12
4 41 9 64 11 81 8 102 12 185 34 80 21 133 44 193 84 16 10 34 16 42 13 26
-10 146 40 194 80 72 61 69 102 -7 109 -43 4 -60 -2 -131 -42 -53 -31 -131
-54 -163 -48 -157 26 -242 49 -274 73 -59 44 -99 188 -94 334 1 18 6 27 18 27
20 0 120 47 151 71 75 58 189 211 198 264 2 11 12 45 23 75 23 62 25 108 11
195 -11 69 -35 106 -75 117 -34 9 -163 -6 -220 -26 -128 -45 -442 -31 -544 23
-25 14 -24 14 -99 -16z m474 -1125 c16 -36 25 -44 54 -49 45 -8 110 -35 110
-47 0 -8 -21 -16 -80 -28 -18 -4 -81 -12 -178 -24 -146 -17 -364 36 -225 55
64 9 152 43 184 73 28 24 86 59 105 61 6 0 19 -18 30 -41z M12045 11916 c-16
-11 -18 -26 -17 -112 1 -54 5 -119 8 -144 3 -25 7 -58 9 -75 2 -16 9 -79 15
-140 11 -108 51 -339 69 -402 5 -17 8 -33 5 -35 -7 -7 88 -102 120 -119 31
-16 34 -16 74 2 22 11 58 39 79 64 20 25 40 45 44 45 4 0 13 -16 19 -36 18
-54 99 -164 129 -176 76 -29 230 49 263 133 12 31 22 22 52 -43 16 -35 46 -99
66 -143 21 -44 43 -98 50 -120 28 -89 32 -96 62 -102 15 -3 30 -9 33 -13 8
-13 95 9 126 31 16 11 38 38 49 59 11 21 23 40 27 42 5 1 23 34 42 71 19 37
38 70 42 72 18 12 99 -137 139 -254 61 -180 81 -208 162 -221 29 -4 60 -5 70
-1 25 9 108 82 108 95 0 6 9 22 20 36 25 31 25 62 2 83 -23 21 -35 21 -87 2
-57 -20 -59 -20 -83 33 -12 26 -40 79 -61 117 -22 39 -45 90 -51 115 -25 95
-82 174 -149 206 -83 40 -116 16 -213 -156 -40 -71 -77 -129 -83 -127 -13 5
-50 80 -80 167 -15 41 -44 111 -65 155 -21 44 -47 101 -59 126 -20 43 -25 47
-67 53 -61 8 -79 -6 -119 -94 -18 -39 -38 -77 -44 -83 -6 -6 -11 -19 -11 -28
0 -9 -6 -22 -14 -28 -20 -17 -77 47 -122 139 -20 41 -52 94 -71 117 -29 37
-38 42 -68 39 -49 -4 -78 -27 -113 -88 -76 -135 -76 -135 -167 460 -14 89 -25
182 -25 205 0 48 -6 59 -37 76 -29 15 -55 14 -78 -3z M16835 11886 c-11 -8
-32 -16 -45 -18 -29 -4 -30 -16 -6 -130 14 -71 21 -150 17 -205 -2 -37 -26
-26 -45 20 -39 94 -92 193 -118 219 -16 16 -25 17 -85 8 -37 -6 -69 -13 -71
-15 -6 -5 -41 -299 -36 -306 4 -6 -31 -158 -43 -189 -3 -8 -8 -26 -10 -40 -7
-43 -22 -46 -38 -7 -8 19 -20 39 -25 42 -6 4 -23 32 -37 63 -14 32 -46 83 -72
114 -44 56 -48 58 -93 58 -45 0 -49 -2 -73 -40 -15 -24 -27 -60 -30 -88 -9
-108 -19 -151 -51 -222 -23 -49 -33 -83 -29 -98 5 -22 10 -23 61 -19 31 3 61
10 67 16 6 6 20 11 30 11 27 0 76 31 83 52 9 28 23 21 41 -19 24 -51 77 -103
106 -103 12 0 28 -5 34 -11 17 -17 53 -4 98 34 50 43 81 105 89 177 4 30 13
80 22 110 9 30 19 70 22 89 8 41 28 51 37 19 39 -125 134 -216 211 -202 29 5
123 60 125 73 0 3 2 27 4 53 2 26 8 55 13 65 5 10 8 56 6 103 -3 84 -5 101
-17 130 -3 8 -11 56 -18 105 -12 91 -39 155 -64 155 -7 0 -19 2 -27 5 -7 3
-22 -1 -33 -9z M13938 10973 l-26 -28 18 -80 c9 -44 41 -134 70 -200 68 -157
82 -191 126 -310 20 -55 39 -104 44 -110 4 -5 15 -34 24 -62 17 -50 35 -73
111 -137 31 -27 59 -33 70 -16 3 6 14 10 24 10 9 0 40 11 68 25 45 21 54 32
81 87 16 35 37 85 47 111 9 26 22 46 28 44 6 -2 19 -37 28 -78 9 -41 33 -118
52 -171 72 -201 136 -265 211 -212 11 8 28 14 38 14 10 0 32 19 49 43 45 62
130 248 154 337 4 14 19 49 33 79 14 29 25 59 25 67 0 8 5 14 12 14 12 0 35
-55 35 -86 0 -31 84 -112 124 -119 50 -10 143 37 189 95 95 120 138 185 167
255 7 17 16 37 21 45 5 8 12 22 15 30 3 8 10 24 14 35 5 11 11 34 14 50 3 17
15 62 26 100 32 114 27 144 -28 158 -44 10 -122 -54 -122 -101 0 -7 -11 -29
-23 -50 -13 -20 -30 -55 -37 -77 -7 -22 -39 -96 -72 -165 -61 -130 -112 -198
-133 -180 -11 9 -32 159 -26 183 4 20 -23 94 -44 119 -13 15 -25 32 -27 39 -6
17 -71 15 -111 -4 -33 -16 -38 -25 -63 -104 -15 -47 -33 -98 -40 -112 -8 -14
-14 -30 -14 -34 0 -5 -16 -42 -35 -83 -19 -40 -35 -79 -35 -85 0 -6 -23 -58
-51 -115 -48 -97 -79 -130 -79 -84 0 11 -4 20 -8 20 -5 0 -9 24 -9 53 0 116
-14 301 -25 345 -8 33 -24 59 -57 90 -43 43 -47 44 -96 40 -60 -5 -115 -39
-115 -70 0 -11 -8 -32 -18 -46 -22 -32 -82 -155 -82 -168 0 -22 -73 -154 -86
-154 -8 0 -14 4 -14 10 0 5 -12 26 -26 47 -36 53 -80 141 -110 221 -93 251
-145 398 -150 433 -8 49 -34 69 -89 69 -32 0 -47 -6 -67 -27z M22257 15770
c-65 -5 -153 -16 -195 -25 -43 -9 -122 -18 -177 -20 -55 -2 -113 -8 -129 -15
-16 -6 -31 -8 -33 -6 -3 3 -16 1 -30 -5 -13 -5 -40 -11 -60 -13 -19 -3 -58
-11 -86 -19 -86 -25 -149 -38 -202 -41 -27 -1 -88 -11 -135 -20 -47 -10 -103
-21 -125 -25 -22 -4 -62 -17 -90 -28 -48 -21 -83 -29 -154 -39 -29 -4 -60 -16
-171 -67 -14 -6 -43 -26 -65 -43 -22 -17 -60 -44 -85 -59 -50 -31 -572 -550
-620 -617 -17 -23 -51 -64 -75 -91 -25 -26 -45 -50 -45 -52 0 -3 -24 -40 -54
-82 -97 -142 -199 -356 -261 -549 -7 -23 -27 -68 -43 -100 -17 -33 -33 -81
-37 -109 -4 -27 -11 -57 -16 -67 -5 -9 -11 -40 -15 -70 -3 -29 -13 -87 -21
-128 -25 -130 -28 -170 -27 -385 0 -170 5 -236 23 -344 12 -74 26 -144 31
-156 5 -13 14 -52 20 -87 6 -34 15 -74 19 -88 67 -196 151 -703 151 -908 0
-202 -29 -314 -120 -462 -32 -51 -100 -173 -122 -215 -46 -90 -78 -148 -87
-159 -8 -10 -72 -129 -161 -303 -15 -29 -31 -58 -37 -65 -14 -18 -52 -123 -69
-188 -8 -30 -18 -64 -23 -75 -5 -11 -17 -47 -27 -80 -9 -33 -38 -125 -64 -205
-67 -206 -91 -296 -96 -365 -2 -33 -11 -89 -20 -125 -20 -81 -13 -359 11 -465
9 -38 20 -92 25 -120 12 -62 43 -166 80 -265 15 -41 38 -120 50 -175 24 -107
58 -233 91 -330 12 -33 27 -82 34 -110 7 -27 25 -77 38 -110 41 -97 226 -430
275 -495 57 -75 261 -269 332 -315 41 -27 103 -71 137 -97 35 -26 65 -48 67
-48 3 0 27 -20 53 -45 26 -24 53 -45 59 -45 6 0 18 -7 25 -17 49 -59 219 -129
339 -139 36 -3 101 -9 145 -13 44 -4 103 -7 130 -6 72 2 299 15 375 22 36 3
103 7 150 9 110 4 925 3 1010 -1 36 -3 128 -8 205 -13 77 -5 217 -7 310 -5 94
2 278 3 410 1 279 -3 369 -3 635 4 l195 5 41 37 c24 20 52 36 63 36 12 0 30 9
41 20 10 10 42 32 69 48 32 18 63 47 87 82 53 77 151 183 250 270 21 19 45 48
52 64 7 16 27 47 45 70 18 22 49 67 67 98 19 32 58 85 87 119 29 33 53 64 53
69 0 5 20 31 43 58 24 27 59 75 78 106 19 32 44 74 56 94 13 20 34 73 49 117
14 44 30 86 36 92 15 18 49 154 42 165 -4 6 -2 20 4 31 6 12 16 51 22 87 6 36
23 99 37 140 33 98 53 176 53 203 0 12 14 76 32 142 30 115 31 128 31 310 0
175 -7 314 -18 390 -12 80 -25 146 -40 205 -9 36 -19 76 -22 90 -26 125 -76
327 -83 335 -4 6 -11 28 -15 50 -4 22 -10 45 -14 50 -4 6 -13 30 -20 55 -7 25
-28 75 -46 111 -18 36 -38 82 -44 101 -6 19 -24 59 -40 88 -16 30 -50 96 -76
145 -26 50 -50 95 -54 100 -4 6 -16 33 -26 60 -10 28 -29 66 -42 85 -12 19
-23 39 -23 44 0 17 -91 191 -125 237 -18 25 -60 105 -94 177 -60 129 -62 133
-62 219 0 86 14 176 30 198 5 5 16 46 26 90 9 44 22 89 28 100 6 11 25 70 43
130 18 61 44 149 58 197 14 48 28 108 31 133 2 25 8 61 14 78 5 18 15 65 21
106 6 40 15 82 21 93 12 23 18 656 6 708 -4 19 -9 64 -11 100 -4 86 -25 214
-43 270 -8 25 -17 56 -19 70 -14 68 -164 423 -185 435 -5 4 -9 15 -9 27 0 11
-9 31 -20 45 -11 14 -20 34 -20 43 0 10 -7 23 -15 30 -8 7 -15 16 -15 21 0 4
-13 27 -29 51 -15 24 -34 60 -40 81 -7 20 -16 37 -21 37 -8 0 -16 14 -86 150
-21 41 -48 86 -60 99 -12 13 -25 35 -28 50 -3 14 -24 46 -46 71 -22 24 -40 48
-40 53 0 24 -140 177 -162 177 -4 0 -8 6 -8 13 0 6 -15 22 -33 35 -17 12 -49
38 -71 57 -21 19 -43 35 -50 35 -6 0 -35 18 -65 40 -29 22 -57 37 -62 34 -5
-3 -9 -1 -9 3 0 15 -258 128 -316 139 -19 3 -37 10 -40 15 -3 5 -13 9 -22 9
-9 0 -29 6 -44 14 -14 8 -43 19 -65 26 -21 7 -60 24 -88 37 -27 13 -79 36
-115 50 -36 14 -79 36 -97 49 -17 13 -36 24 -41 24 -5 0 -29 9 -53 19 -69 30
-229 42 -392 31z m-92 -165 c183 -14 221 -18 230 -25 6 -4 30 -8 55 -9 79 -3
171 -18 325 -53 140 -31 255 -81 374 -161 47 -32 131 -88 186 -124 55 -37 102
-70 105 -73 3 -4 21 -17 41 -31 58 -39 173 -144 333 -304 162 -162 250 -280
388 -525 36 -63 78 -135 92 -160 67 -113 144 -304 165 -410 33 -161 34 -857 2
-1022 -5 -29 -12 -79 -15 -110 -6 -60 -60 -296 -77 -337 -5 -13 -17 -59 -25
-102 -8 -43 -21 -97 -30 -121 -20 -56 -52 -218 -58 -293 -2 -33 -9 -73 -15
-88 -26 -68 -2 -275 39 -350 27 -47 128 -256 140 -287 7 -19 21 -54 31 -77 11
-24 19 -48 19 -54 0 -13 65 -142 91 -179 10 -14 32 -53 50 -85 17 -33 37 -67
44 -75 24 -30 92 -171 110 -230 4 -14 37 -92 72 -175 64 -149 114 -290 148
-415 9 -36 20 -72 23 -80 6 -16 6 -16 21 -107 44 -258 52 -335 52 -503 0 -98
-5 -171 -16 -225 -10 -44 -21 -105 -25 -137 -4 -31 -11 -61 -14 -67 -4 -6 -13
-41 -21 -78 -13 -68 -34 -155 -95 -413 -48 -199 -205 -578 -268 -645 -10 -11
-32 -45 -49 -75 -16 -30 -43 -75 -60 -100 -16 -25 -40 -66 -54 -93 -37 -72
-159 -220 -199 -239 -19 -10 -41 -31 -50 -47 -15 -29 -103 -125 -151 -166 -26
-22 -66 -39 -144 -62 -27 -8 -57 -17 -65 -20 -8 -3 -415 -7 -905 -9 -489 -1
-937 -5 -995 -9 -178 -13 -470 -12 -570 2 -52 7 -106 13 -120 13 -14 -1 -74 3
-135 7 -102 7 -294 9 -425 4 -81 -2 -368 16 -419 27 -25 6 -51 8 -58 5 -7 -3
-13 0 -13 6 0 6 -8 11 -17 11 -33 0 -117 34 -183 74 -36 21 -85 51 -110 65
-124 70 -262 198 -305 281 -10 19 -36 62 -59 95 -69 102 -106 175 -156 305 -8
19 -35 70 -62 112 -26 43 -48 82 -48 86 0 9 -97 202 -142 282 -13 25 -35 74
-47 110 -13 36 -26 72 -29 80 -6 17 -6 20 -26 126 -14 75 -28 134 -62 266 -8
31 -14 60 -12 65 4 16 -24 181 -48 276 -14 54 -22 102 -19 106 5 8 27 259 27
311 1 102 22 275 40 330 12 36 22 74 23 85 4 29 66 238 75 250 4 6 11 26 15
45 4 19 25 71 46 116 22 46 39 87 39 92 0 5 8 20 18 33 10 13 57 98 104 189
102 197 104 199 151 273 35 53 74 125 188 347 37 72 74 179 98 285 18 83 22
329 6 404 -7 36 -17 84 -20 106 -4 22 -15 64 -26 94 -10 30 -17 57 -14 59 3 3
-6 26 -19 51 -49 93 -66 148 -82 261 -3 24 -9 51 -13 60 -5 8 -16 56 -25 105
-9 50 -21 110 -27 134 -10 44 -14 360 -5 403 6 26 14 127 22 278 14 265 70
558 114 600 15 14 84 141 111 204 16 39 42 91 57 116 15 25 32 56 38 70 7 14
28 42 48 64 20 21 36 41 36 45 0 3 11 18 25 33 14 15 25 30 25 33 0 9 33 45
85 94 27 25 81 79 120 119 136 142 364 368 426 424 182 161 418 275 624 299
39 5 93 16 120 24 103 33 200 56 308 75 62 10 135 26 162 33 47 13 185 14 340
2z M20715 14191 c-11 -5 -42 -17 -68 -27 -38 -14 -52 -25 -68 -56 -20 -39 -20
-39 0 -72 32 -52 88 -72 224 -81 78 -5 96 -3 145 17 96 38 162 85 162 115 0
27 -47 69 -100 87 -52 19 -265 30 -295 17z M23155 14140 c-3 -5 -25 -10 -48
-10 -40 0 -56 -6 -117 -41 -50 -28 -60 -40 -50 -60 6 -10 9 -22 8 -26 -4 -13
24 -47 62 -73 42 -30 169 -50 248 -40 42 5 60 14 90 43 33 32 62 93 62 129 0
20 -77 55 -150 68 -36 7 -72 14 -82 16 -9 3 -19 0 -23 -6z M23105 13481 c-68
-22 -131 -61 -189 -118 -77 -75 -101 -150 -81 -256 23 -125 125 -216 282 -252
78 -18 173 5 222 53 8 7 24 20 37 29 57 37 134 197 134 277 0 60 -30 125 -84
180 -93 95 -204 126 -321 87z m85 -246 c56 -29 79 -97 44 -126 -52 -44 -119
-38 -155 13 -20 28 -20 29 -2 66 16 32 52 61 76 62 4 0 21 -7 37 -15z M20682
13450 c-40 -9 -109 -72 -128 -117 -8 -17 -18 -34 -23 -37 -17 -11 -66 -197
-64 -246 4 -90 80 -183 197 -240 82 -39 83 -40 147 -29 35 5 72 14 81 20 10 5
24 9 31 9 39 0 145 126 183 216 27 64 12 189 -31 262 -71 122 -250 196 -393
162z m161 -221 c33 -15 46 -40 53 -102 l6 -54 -47 -22 c-58 -27 -87 -22 -128
22 -37 40 -48 69 -40 107 9 45 49 73 95 66 21 -3 48 -11 61 -17z M21934 12620
c-47 -4 -66 -10 -80 -27 -15 -18 -34 -24 -94 -29 -41 -4 -95 -13 -120 -20 -25
-8 -55 -14 -66 -14 -12 0 -33 -9 -48 -21 l-26 -20 -37 19 c-88 46 -554 71
-672 36 -41 -12 -52 -20 -57 -41 -8 -32 15 -52 60 -52 17 0 44 -3 59 -8 16 -5
63 -6 105 -2 42 3 109 3 147 -2 75 -8 244 -44 284 -60 22 -9 22 -11 7 -28 -9
-10 -16 -23 -16 -29 0 -8 -20 -12 -52 -13 -29 0 -62 -2 -73 -4 -22 -3 -161
-23 -215 -30 -19 -3 -64 -12 -100 -21 -36 -9 -78 -16 -95 -16 -45 1 -98 -18
-115 -39 -8 -11 -31 -27 -49 -37 -52 -26 -60 -46 -31 -77 21 -23 29 -25 70
-19 25 4 68 17 95 29 75 33 183 64 240 69 28 3 75 10 105 16 63 12 139 15 168
6 23 -8 28 -18 37 -77 l6 -44 -83 -24 c-83 -24 -97 -30 -174 -70 -23 -11 -46
-21 -52 -21 -18 0 -250 -148 -271 -174 -17 -21 -6 -51 25 -64 52 -24 102 -11
161 41 21 19 67 50 103 69 36 19 79 42 95 51 73 39 130 59 204 72 79 14 80 14
138 -13 51 -23 70 -26 163 -27 145 0 210 28 276 121 l32 45 23 -38 c13 -21 30
-43 39 -49 8 -7 28 -24 43 -38 17 -16 40 -26 57 -26 16 0 41 -5 57 -11 43 -16
161 -13 228 6 68 20 94 21 145 7 19 -6 58 -16 85 -22 28 -7 75 -20 105 -30 30
-10 75 -23 100 -30 95 -27 132 -40 219 -77 19 -9 47 -13 65 -9 118 20 133 32
93 74 -21 22 -86 50 -129 56 -3 1 -10 4 -14 9 -4 4 -15 7 -25 7 -9 0 -40 11
-67 25 -28 14 -56 25 -64 25 -8 0 -18 4 -23 9 -11 10 -73 29 -195 61 -47 12
-91 24 -98 26 -12 3 -11 6 24 62 1 2 44 12 95 23 111 24 335 35 398 21 51 -12
144 2 162 25 9 11 7 19 -11 38 -13 14 -31 25 -41 25 -10 0 -44 7 -76 15 -62
17 -431 24 -506 10 -39 -8 -39 -7 -51 47 -6 24 -2 29 39 47 25 11 58 29 74 40
46 33 161 51 308 48 150 -2 169 4 143 51 -30 53 -70 64 -220 59 -145 -5 -216
-23 -353 -88 l-60 -28 -36 27 c-89 67 -169 92 -295 92 -61 0 -99 5 -116 15
-25 14 -30 16 -85 38 -18 8 -55 10 -91 7z m-92 -191 c25 -25 32 -41 37 -93 7
-63 5 -79 -22 -176 -32 -119 -67 -147 -186 -152 -73 -3 -102 18 -130 90 -28
71 -26 113 6 195 31 79 73 121 135 137 24 5 54 14 68 19 44 15 61 12 92 -20z
m415 -3 c93 -25 117 -47 144 -129 26 -79 31 -187 10 -226 -28 -51 -116 -77
-169 -48 -25 15 -102 140 -102 168 0 10 -4 20 -9 23 -4 3 -11 34 -14 68 -3 35
-8 70 -11 78 -4 8 3 30 14 48 23 37 51 41 137 18z M23468 10823 c-51 -6 -78
-41 -78 -102 0 -52 50 -176 94 -234 28 -36 86 -77 110 -77 22 0 70 28 97 57
22 24 25 36 22 88 -4 88 -62 199 -123 236 -53 32 -72 37 -122 32z M19868
10700 c-43 -26 -88 -98 -102 -163 -6 -25 14 -116 32 -144 21 -33 81 -61 125
-59 40 2 51 7 82 41 38 42 78 117 80 150 1 11 5 37 9 58 6 32 3 45 -15 72 -13
18 -35 40 -49 48 -34 20 -128 18 -162 -3z M24317 10673 c-55 -8 -89 -120 -52
-169 8 -10 15 -27 15 -37 0 -26 88 -140 128 -166 48 -32 94 -16 122 42 27 55
25 87 -10 187 -46 133 -85 161 -203 143z M19372 10250 c-48 -30 -82 -108 -82
-191 0 -75 12 -97 61 -113 53 -18 98 -2 137 48 17 24 32 50 32 59 0 9 7 42 15
74 8 31 15 70 15 85 0 33 -20 44 -97 53 -38 5 -55 2 -81 -15z M20228 10218
c-66 -38 -112 -170 -88 -257 14 -53 41 -71 94 -64 22 3 53 5 68 5 36 -1 91 63
114 131 18 55 14 138 -8 165 -36 43 -123 53 -180 20z M23981 10184 c-26 -33
-30 -139 -6 -170 8 -10 15 -27 15 -37 0 -44 71 -117 114 -117 22 0 91 38 115
64 21 22 23 32 18 78 -6 63 -44 135 -93 177 -30 26 -43 31 -89 31 -46 0 -56
-4 -74 -26z M24655 9793 c-105 -22 -137 -91 -95 -204 26 -73 43 -94 92 -120
45 -23 71 -24 108 -3 60 36 77 121 42 216 -19 51 -64 108 -86 108 -8 0 -20 2
-28 4 -7 2 -22 2 -33 -1z M19869 9643 c-19 -5 -69 -64 -94 -113 -29 -55 -20
-239 13 -272 12 -12 76 -14 107 -4 23 7 90 97 116 157 12 25 19 64 19 99 0 53
-3 62 -35 96 -26 27 -40 35 -56 31 -12 -3 -29 -2 -38 2 -9 4 -23 6 -32 4z
M19177 9608 c-14 -13 -35 -45 -47 -73 -18 -42 -21 -64 -18 -139 4 -83 6 -90
32 -111 15 -12 37 -21 49 -19 90 13 96 15 117 49 61 99 66 293 7 309 -51 14
-114 6 -140 -16z M23984 9509 c-26 -28 -24 -100 4 -162 27 -62 94 -127 130
-127 44 0 102 20 102 34 0 8 7 16 15 20 34 13 2 136 -55 209 -25 31 -66 47
-123 47 -42 0 -58 -5 -73 -21z M24538 9122 c-118 -86 -41 -401 89 -363 15 5
47 16 70 26 50 20 57 40 49 151 -10 148 -44 204 -129 210 -33 2 -50 -3 -79
-24z M19243 9020 c-39 -9 -66 -39 -89 -100 -9 -25 -21 -49 -25 -54 -26 -29 4
-187 41 -221 20 -18 84 -23 142 -11 27 6 44 18 63 46 23 34 28 52 32 138 5 84
3 107 -13 145 -16 40 -24 47 -61 56 -46 12 -45 12 -90 1z M20503 8696 c-18 -6
-35 -15 -39 -19 -4 -4 -10 -48 -14 -97 -4 -49 -10 -93 -14 -97 -7 -7 -16 2
-56 57 -15 21 -16 21 -70 4 -146 -44 -165 -67 -120 -148 30 -52 39 -109 20
-121 -5 -3 -25 5 -43 19 -45 34 -123 36 -176 4 -20 -12 -39 -27 -43 -32 -10
-15 0 -45 28 -82 29 -37 31 -75 6 -97 -24 -22 -103 -22 -157 -1 -102 40 -127
47 -133 37 -4 -6 -17 -13 -28 -17 -14 -4 -24 -18 -28 -38 -7 -37 15 -66 79
-103 37 -22 48 -23 150 -19 96 4 116 9 155 31 55 33 108 87 127 131 12 30 16
32 47 27 65 -13 160 49 172 111 6 33 16 40 68 50 43 8 111 43 137 71 30 32 38
52 45 108 3 22 7 45 9 51 2 7 -6 51 -17 98 -19 82 -22 86 -47 85 -14 -1 -40
-7 -58 -13z M23129 8500 c-22 -13 -14 -157 10 -182 9 -9 27 -34 40 -56 26 -44
51 -59 114 -68 57 -9 80 -25 101 -72 21 -46 69 -72 136 -72 46 0 90 -18 90
-37 0 -7 16 -30 35 -51 40 -45 109 -65 212 -64 83 1 193 49 193 85 0 50 -64
80 -148 69 -100 -12 -121 -6 -142 40 -10 23 -16 46 -14 53 3 6 -7 21 -21 33
-35 31 -114 35 -144 8 -30 -28 -47 -8 -44 54 2 43 -1 50 -25 66 -15 10 -36 19
-47 21 -11 1 -32 5 -47 7 -15 3 -30 1 -33 -4 -3 -6 -22 -10 -41 -10 -28 0 -38
6 -54 32 -11 18 -22 51 -26 75 -4 30 -13 47 -32 59 -30 20 -90 27 -113 14z
M28520 14650 c-89 -8 -283 -44 -325 -60 -17 -7 -50 -16 -75 -20 -25 -5 -67
-16 -95 -25 -27 -9 -68 -21 -90 -26 -22 -6 -60 -17 -85 -25 -25 -9 -66 -22
-91 -29 -39 -11 -93 -34 -209 -88 -53 -24 -175 -105 -251 -164 -44 -35 -86
-63 -94 -63 -8 0 -18 -6 -22 -14 -4 -8 -37 -38 -73 -67 -136 -108 -440 -410
-440 -436 0 -6 -6 -13 -14 -16 -8 -3 -31 -34 -51 -69 -19 -35 -62 -105 -95
-155 -81 -127 -121 -199 -166 -298 -7 -16 -20 -59 -29 -95 -9 -36 -20 -74 -25
-85 -5 -11 -12 -31 -14 -45 -2 -14 -9 -38 -15 -55 -6 -16 -13 -59 -15 -95 -3
-36 -9 -105 -15 -155 -14 -130 -15 -234 -3 -455 10 -186 22 -293 41 -370 5
-19 12 -62 16 -95 4 -33 17 -103 31 -155 13 -52 33 -133 43 -180 11 -47 34
-132 51 -190 66 -218 67 -368 4 -492 -11 -20 -34 -66 -52 -102 -18 -36 -44
-81 -57 -101 -14 -20 -52 -88 -86 -153 -34 -64 -67 -124 -74 -132 -6 -8 -20
-35 -29 -60 -10 -25 -21 -49 -26 -55 -4 -5 -13 -28 -20 -50 -7 -22 -20 -56
-30 -75 -34 -68 -71 -169 -95 -255 -9 -33 -27 -87 -39 -120 -20 -51 -74 -264
-106 -415 -18 -87 -28 -506 -15 -652 3 -29 7 -82 9 -118 3 -35 10 -84 15 -110
6 -25 15 -67 21 -95 32 -151 158 -507 208 -585 8 -14 28 -48 43 -77 15 -29 37
-63 49 -75 12 -13 30 -39 41 -59 10 -21 24 -43 31 -51 7 -7 46 -51 87 -98 41
-47 84 -94 95 -105 12 -11 50 -56 86 -100 100 -123 251 -248 335 -276 22 -7
53 -24 69 -37 16 -13 42 -26 57 -29 16 -3 29 -8 29 -12 0 -3 15 -12 33 -20 17
-8 49 -25 69 -38 21 -13 45 -23 54 -23 9 0 31 -9 49 -20 18 -11 43 -19 56 -19
13 1 58 -5 99 -14 62 -13 127 -15 370 -11 162 2 354 3 425 2 130 -3 729 -3
1135 -1 118 1 278 1 355 1 162 0 343 9 431 23 136 20 321 99 430 182 65 49
258 247 286 294 10 15 42 62 72 103 58 80 141 212 169 270 9 19 21 42 26 50 6
8 23 44 39 80 84 188 97 216 108 230 6 8 15 26 19 40 4 14 19 48 32 75 31 63
62 155 74 220 6 27 14 68 19 90 56 242 58 263 54 470 -6 268 -21 440 -47 540
-6 22 -12 51 -13 65 -3 37 -43 231 -53 260 -5 14 -17 52 -26 85 -10 33 -20 65
-24 70 -3 6 -7 21 -9 35 -2 13 -7 29 -11 35 -5 5 -12 24 -16 40 -10 37 -9 34
-23 68 -7 15 -15 40 -18 55 -6 28 -69 211 -84 247 -5 11 -16 36 -24 55 -9 19
-28 58 -44 85 -15 28 -33 59 -39 70 -7 11 -19 45 -28 75 -9 30 -30 80 -47 110
-32 57 -88 207 -88 234 0 8 -10 31 -21 51 -12 20 -19 38 -16 41 2 3 -1 25 -9
50 -17 58 -4 159 37 293 16 51 29 102 29 113 0 10 7 32 15 49 9 16 20 58 25
92 9 64 17 100 44 225 13 57 17 137 18 375 0 166 -2 322 -5 347 -4 25 -8 86
-11 135 -6 118 -22 210 -56 320 -15 50 -47 150 -69 224 -23 74 -46 140 -51
145 -4 6 -22 49 -38 96 -16 47 -39 103 -51 125 -34 62 -141 224 -163 246 -8 8
-40 45 -71 82 -61 72 -181 188 -282 272 -33 28 -62 52 -65 55 -3 3 -30 23 -60
45 -152 108 -221 155 -229 155 -4 0 -20 14 -36 30 -16 17 -35 30 -43 30 -8 0
-26 8 -40 18 -15 10 -52 29 -82 42 -30 13 -66 32 -80 41 -87 58 -235 114 -365
139 -22 4 -103 21 -180 38 -149 33 -273 42 -395 32z m1361 -1771 c100 -60 129
-115 129 -240 0 -85 -5 -108 -39 -176 -35 -72 -157 -124 -273 -118 -59 3 -82
13 -129 57 -61 57 -117 203 -104 271 9 46 56 147 82 173 62 62 96 73 214 68
55 -2 77 -9 120 -35z m-2330 -12 c60 -22 114 -55 129 -79 63 -101 74 -297 19
-366 -55 -71 -219 -140 -297 -126 -102 18 -183 109 -217 242 -19 72 -15 103
23 186 39 87 100 142 162 148 81 8 149 6 181 -5z m1126 -633 c12 -8 28 -14 36
-14 7 0 29 -12 48 -26 29 -22 85 -53 176 -98 13 -6 23 -14 23 -18 0 -4 21 -19
48 -34 26 -15 56 -35 67 -45 11 -9 36 -24 55 -33 19 -9 42 -20 50 -25 8 -5 36
-19 62 -31 61 -29 88 -55 88 -85 0 -25 -8 -30 -75 -40 -22 -4 -62 -13 -90 -20
-27 -7 -72 -18 -100 -24 -27 -5 -90 -19 -140 -31 -107 -24 -145 -32 -290 -60
l-110 -21 -90 19 c-117 25 -249 63 -354 102 -47 16 -110 33 -140 36 -133 12
-138 14 -150 41 -15 33 5 77 52 111 62 45 146 90 180 96 19 4 40 13 47 21 7 8
20 15 29 15 9 0 65 25 126 55 60 30 118 55 129 55 10 0 37 9 60 19 119 55 140
61 191 56 28 -4 60 -13 72 -21z m1137 -1898 c125 -131 155 -279 151 -736 -2
-162 -6 -326 -9 -365 -4 -62 -12 -182 -22 -340 -11 -182 -13 -379 -4 -419 18
-79 96 -134 204 -142 70 -5 225 31 273 63 15 10 54 27 85 37 53 18 59 18 82 3
33 -22 54 -68 67 -146 15 -87 11 -289 -5 -365 -24 -108 -57 -220 -77 -266 -22
-47 -71 -194 -108 -320 -19 -63 -75 -206 -102 -260 -4 -8 -19 -44 -34 -80 -16
-36 -43 -88 -62 -117 -39 -59 -147 -163 -169 -163 -19 0 -77 -29 -86 -44 -7
-10 -338 -12 -1698 -8 -267 1 -595 1 -730 0 l-245 -2 -70 28 c-38 16 -76 37
-84 47 -7 10 -20 19 -27 19 -8 0 -29 20 -46 45 -17 24 -44 49 -60 54 -15 6
-28 14 -28 20 0 5 -6 16 -13 23 -11 11 -82 152 -116 228 -6 14 -15 32 -20 40
-13 20 -51 105 -51 113 0 3 -20 48 -44 99 -24 51 -47 104 -50 118 -4 14 -16
44 -26 66 -11 23 -22 55 -25 70 -4 16 -10 38 -14 49 -24 61 -55 176 -66 250
-3 17 -11 66 -19 110 -16 91 -13 277 5 343 13 48 37 56 66 22 10 -11 25 -20
35 -20 10 0 18 -4 18 -10 0 -5 8 -10 17 -10 19 0 123 -68 123 -80 0 -4 12 -11
27 -15 15 -3 30 -10 33 -13 11 -15 82 -42 109 -42 44 0 129 29 150 52 21 22
73 123 77 148 14 88 18 278 29 1145 3 237 7 446 10 465 19 150 48 233 99 286
52 54 82 57 149 14 26 -16 56 -30 67 -30 19 0 142 -41 195 -65 36 -16 206 -56
255 -60 19 -2 87 -11 150 -20 94 -14 148 -16 295 -11 247 10 407 22 535 41 14
2 54 8 90 13 66 10 215 56 237 74 7 6 18 8 25 5 7 -2 26 2 42 11 17 8 57 22
91 32 34 10 70 22 81 28 30 16 94 29 147 31 45 1 52 -2 91 -43z M29652 12809
c-126 -64 -137 -259 -20 -337 57 -37 141 -42 203 -12 129 62 142 259 23 338
-56 37 -146 42 -206 11z M27362 12769 c-126 -64 -137 -259 -20 -337 57 -37
141 -42 203 -12 129 62 142 259 23 338 -56 37 -146 42 -206 11z M34309 13576
c-9 -9 -101 -18 -214 -20 -68 -1 -129 -7 -140 -14 -11 -6 -56 -18 -99 -27 -44
-8 -93 -22 -109 -30 -17 -8 -36 -15 -44 -15 -7 0 -30 -9 -50 -20 -21 -11 -45
-20 -55 -20 -9 0 -20 -5 -23 -10 -4 -6 -21 -17 -38 -26 -38 -18 -78 -41 -128
-72 -20 -12 -44 -22 -53 -22 -9 0 -16 -5 -16 -10 0 -6 -8 -14 -17 -17 -10 -4
-38 -21 -63 -38 -25 -17 -74 -48 -110 -69 -120 -69 -135 -79 -225 -153 -121
-98 -129 -106 -214 -203 -41 -47 -80 -89 -88 -93 -7 -4 -20 -22 -29 -40 -9
-18 -23 -36 -30 -40 -8 -4 -14 -13 -14 -19 0 -6 -25 -39 -55 -74 -31 -34 -62
-79 -70 -98 -9 -20 -19 -36 -24 -36 -5 0 -11 -8 -15 -17 -3 -10 -26 -52 -50
-92 -24 -41 -42 -81 -39 -88 3 -7 1 -13 -4 -13 -12 0 -39 -56 -56 -115 -8 -27
-23 -77 -32 -110 -34 -117 -56 -221 -82 -390 -14 -86 -7 -403 10 -485 22 -112
65 -273 84 -316 9 -22 20 -57 24 -79 4 -22 17 -67 29 -100 26 -72 50 -192 50
-246 0 -40 -50 -239 -74 -294 -8 -16 -24 -59 -36 -95 -13 -36 -29 -76 -36 -90
-8 -14 -32 -65 -55 -115 -39 -86 -101 -213 -119 -245 -5 -8 -35 -68 -66 -133
-31 -64 -60 -120 -65 -123 -5 -3 -9 -20 -9 -37 0 -18 -7 -54 -16 -82 -8 -27
-21 -93 -29 -145 -8 -52 -22 -120 -31 -150 -14 -46 -17 -105 -17 -360 0 -510
9 -541 338 -1176 46 -89 111 -200 144 -248 34 -48 61 -90 61 -94 0 -7 5 -12
130 -137 50 -49 116 -105 148 -122 31 -18 68 -39 82 -47 14 -7 45 -20 70 -27
25 -7 57 -26 72 -41 14 -15 37 -28 50 -28 12 0 42 -7 65 -15 22 -8 58 -15 80
-16 21 -1 45 -6 53 -9 14 -7 216 -22 265 -21 11 0 94 -5 185 -13 132 -11 444
-18 815 -19 22 0 135 5 250 12 116 8 264 11 331 8 66 -2 128 -1 136 4 9 5 92
9 185 10 171 0 276 12 303 34 8 6 31 18 50 25 19 8 51 23 70 35 19 11 44 25
55 31 11 6 25 20 30 31 6 12 33 38 60 58 85 63 228 218 273 295 14 25 32 52
39 60 100 112 199 299 278 524 30 86 61 169 69 184 43 83 73 180 81 260 6 62
15 103 25 117 8 10 9 20 31 245 13 142 5 317 -21 425 -6 28 -13 72 -15 98 -1
26 -9 62 -18 80 -9 18 -21 66 -28 107 -7 41 -19 86 -26 100 -7 14 -13 35 -13
47 0 12 -5 25 -10 28 -6 4 -8 11 -5 16 7 10 -171 359 -224 439 -34 50 -111
218 -147 315 -64 176 -77 245 -70 370 7 118 15 150 71 290 45 113 83 257 95
363 5 45 14 91 20 102 6 11 8 25 5 30 -3 5 1 38 9 73 8 34 15 76 15 92 1 17 4
98 8 180 7 121 5 168 -9 245 -29 165 -159 510 -241 641 -26 41 -57 97 -70 124
-24 49 -56 101 -89 140 -9 11 -54 70 -99 130 -154 207 -339 361 -614 509 -44
23 -105 48 -235 96 -63 23 -126 48 -140 55 -14 7 -52 18 -85 25 -33 6 -77 16
-97 21 -20 5 -80 11 -132 14 -53 2 -100 6 -105 9 -4 3 -10 4 -12 2z m-1368
-1796 c228 -16 440 -32 473 -36 l59 -6 -6 -57 c-6 -73 -60 -181 -119 -240
-110 -110 -215 -152 -381 -152 -208 1 -379 104 -464 279 -29 61 -36 89 -41
158 l-5 84 36 0 c19 0 221 -13 448 -30z m2937 -54 c-5 -69 -12 -97 -41 -158
-61 -126 -175 -220 -317 -262 -101 -30 -256 -21 -364 20 -140 54 -271 218
-283 355 l-6 57 64 7 c117 12 823 63 888 64 l64 1 -5 -84z m-1622 -50 c83 -28
196 -79 263 -118 34 -21 66 -38 70 -38 5 0 16 -10 27 -21 10 -12 29 -25 42
-30 13 -5 28 -22 33 -39 6 -16 14 -30 19 -30 10 0 35 -38 44 -66 6 -19 0 -25
-41 -44 -139 -63 -164 -78 -221 -133 -65 -65 -87 -94 -125 -173 -18 -38 -37
-76 -42 -84 -20 -32 -76 -169 -106 -260 -17 -52 -35 -99 -39 -103 -4 -4 -14
18 -24 50 -59 206 -76 247 -132 307 -30 32 -54 62 -54 66 0 14 -176 187 -225
221 -27 18 -81 50 -120 70 -57 30 -71 41 -73 64 -4 31 27 81 90 142 51 50 70
64 248 182 30 20 105 48 140 53 57 8 180 -1 226 -16z m1929 -2226 c11 -20 23
-30 39 -30 20 0 28 -12 56 -77 33 -81 69 -203 77 -263 2 -19 8 -44 13 -55 6
-11 14 -45 19 -75 5 -30 19 -109 30 -175 17 -99 20 -147 16 -275 -3 -85 -10
-175 -15 -200 -6 -25 -17 -87 -25 -139 -8 -52 -32 -146 -54 -210 -21 -64 -49
-150 -61 -191 -38 -130 -51 -160 -71 -160 -11 0 -27 -5 -37 -11 -14 -9 -25 -8
-49 5 -38 19 -121 12 -139 -13 -10 -13 -15 -11 -37 13 -36 39 -83 42 -121 7
-15 -14 -32 -36 -37 -48 -15 -40 -55 -30 -91 22 -28 40 -36 45 -70 45 -33 0
-45 -7 -87 -52 -48 -51 -49 -51 -74 -35 -56 37 -95 177 -103 374 -13 318 -15
761 -4 888 18 219 58 354 120 410 16 15 22 16 35 5 25 -21 45 -66 45 -100 0
-24 6 -33 26 -40 32 -12 84 -13 84 -1 0 5 8 11 18 13 14 4 23 26 37 89 19 87
54 179 68 179 23 0 67 -64 67 -98 0 -54 102 -76 139 -31 11 13 20 29 21 34 1
38 124 225 147 225 1 0 9 -13 18 -30z m-4017 -32 c9 -12 13 -30 28 -124 6 -39
35 -53 93 -45 38 5 46 11 68 51 28 51 69 97 79 88 11 -12 24 -83 24 -139 0
-69 11 -80 84 -84 59 -4 70 3 100 63 9 17 20 32 24 32 5 0 16 -32 26 -71 20
-76 39 -97 96 -104 18 -2 41 2 51 8 26 16 33 3 54 -88 48 -220 64 -632 40
-1057 -14 -248 -65 -421 -131 -442 -33 -10 -66 35 -89 121 -24 92 -54 122
-106 107 -18 -5 -41 -21 -52 -35 -16 -23 -18 -33 -9 -73 8 -37 7 -46 -4 -46
-17 0 -54 57 -54 83 0 10 -12 30 -26 44 -22 22 -32 25 -69 20 -24 -2 -45 -1
-47 2 -2 4 -20 19 -40 35 l-37 28 -46 -32 c-36 -25 -45 -37 -45 -60 0 -37 -12
-44 -65 -36 -42 7 -44 9 -78 79 -20 40 -44 99 -55 132 -11 33 -29 83 -40 111
-24 61 -31 107 -41 304 -14 249 -4 471 29 625 5 28 15 77 21 110 12 70 21 102
61 209 35 94 66 146 105 174 33 25 37 26 51 10z M32730 11706 c0 -25 27 -86
54 -121 37 -49 119 -88 182 -87 93 1 180 62 218 153 l15 36 -172 12 c-95 7
-200 15 -234 18 -55 5 -63 4 -63 -11z M35338 11702 l-197 -15 15 -35 c38 -92
125 -153 218 -154 63 -1 145 38 182 87 26 35 54 96 54 120 0 18 -1 18 -272 -3z
M33883 11556 c-46 -10 -55 -16 -97 -74 -25 -34 -46 -70 -46 -80 0 -24 19 -42
46 -42 13 0 26 -4 29 -10 11 -18 34 -10 65 23 17 17 45 48 64 67 43 45 49 65
31 101 -17 32 -16 31 -92 15z M34256 11547 c-12 -9 -17 -23 -14 -47 3 -32 7
-36 50 -50 26 -8 58 -26 72 -39 l25 -24 45 27 c34 20 46 33 46 51 0 32 -10 55
-24 55 -6 0 -28 9 -49 20 -42 23 -124 27 -151 7z M34083 11437 c-19 -20 -20
-27 -12 -77 5 -30 9 -84 9 -120 -1 -36 2 -130 5 -210 5 -133 8 -147 27 -163
15 -13 30 -17 48 -12 14 3 31 6 37 7 7 1 20 9 29 19 14 16 15 33 4 161 -22
281 -36 386 -52 406 -16 19 -71 13 -95 -11z M15405 5068 c-2 -7 -23 -191 -45
-408 -49 -475 -72 -647 -155 -1195 -35 -231 -75 -505 -89 -610 -33 -235 -36
-253 -46 -234 -20 37 -155 450 -286 874 -278 900 -327 1038 -477 1346 l-106
217 -56 -14 c-32 -7 -58 -14 -60 -16 -1 -2 -5 -578 -8 -1281 l-6 -1278 67 3
67 3 5 1118 5 1117 49 -127 c110 -290 224 -619 341 -987 176 -555 303 -934
379 -1132 48 -125 66 -185 66 -219 l0 -47 33 5 c17 3 57 9 89 13 l56 6 6 147
c11 257 27 513 37 611 6 52 53 376 105 720 52 344 101 686 109 760 16 153 43
465 47 555 l3 60 -63 3 c-44 2 -64 -1 -67 -10z M15801 4873 c-6 -43 -27 -139
-45 -214 -65 -258 -65 -219 -5 -894 l53 -600 5 -612 c4 -336 8 -613 11 -616 3
-2 31 -2 63 0 l57 5 0 587 0 586 -50 588 c-28 323 -50 625 -50 672 0 68 9 120
46 262 25 97 48 204 51 238 l6 62 -33 6 c-18 4 -47 7 -65 7 l-33 0 -11 -77z
M19591 4873 c-6 -43 -27 -139 -45 -214 -65 -258 -65 -219 -5 -894 l53 -600 5
-612 c4 -336 8 -613 11 -616 3 -2 31 -2 63 0 l57 5 0 587 0 586 -50 588 c-28
323 -50 625 -50 672 0 68 9 120 46 262 25 97 48 204 51 238 l6 62 -33 6 c-18
4 -47 7 -65 7 l-33 0 -11 -77z M22930 4780 c-194 -41 -343 -125 -509 -285
-330 -319 -579 -859 -632 -1374 -15 -142 -6 -511 15 -665 75 -536 256 -914
610 -1273 83 -84 114 -108 176 -137 170 -80 388 -119 765 -137 656 -31 1017
40 1230 242 106 101 152 198 225 474 127 479 190 996 190 1563 0 441 -132 779
-397 1018 -219 198 -355 288 -583 387 -401 173 -820 245 -1090 187z m349 -130
c303 -32 639 -150 871 -305 59 -40 142 -110 220 -188 69 -68 177 -162 240
-209 137 -102 151 -117 184 -188 50 -108 61 -214 60 -555 0 -393 -26 -746 -75
-1040 -113 -679 -349 -993 -824 -1097 -95 -21 -792 -17 -950 5 -218 30 -360
78 -438 147 -89 78 -225 264 -315 430 -166 307 -304 799 -328 1165 -10 163 31
355 142 663 204 562 481 960 775 1107 137 69 244 85 438 65z M31445 4624
c-126 -17 -366 -65 -510 -102 l-110 -28 -7 -75 c-30 -349 -34 -650 -14 -1134
8 -187 20 -577 27 -867 l12 -528 31 -5 c96 -16 889 -117 1023 -130 87 -9 295
-20 463 -25 168 -5 341 -12 386 -16 l81 -7 6 39 c14 84 18 80 -93 88 -56 4
-221 11 -368 16 -297 10 -552 30 -777 61 -134 18 -527 80 -597 95 l-28 6 0
590 0 591 68 -7 c297 -31 1087 -68 1126 -53 12 5 16 20 16 61 l0 54 -72 7
c-40 3 -137 13 -215 21 -78 8 -218 14 -310 14 -166 0 -460 13 -581 26 l-62 6
2 536 3 535 105 28 c137 37 370 84 490 99 61 8 216 11 438 8 l342 -3 0 58 0
57 -387 -1 c-266 -1 -419 -5 -488 -15z M18711 4459 c-24 -5 -46 -11 -49 -13
-2 -3 34 -268 82 -588 47 -321 86 -589 86 -595 0 -10 -72 -13 -324 -13 l-324
0 -7 43 c-30 189 -97 482 -145 637 -17 57 -20 93 -20 283 l0 217 -70 0 -70 0
0 -218 c0 -194 2 -225 20 -278 70 -202 167 -673 140 -682 -5 -2 -10 -32 -10
-68 0 -57 2 -64 20 -64 12 0 21 -8 25 -22 17 -82 54 -685 55 -900 l0 -68 67 0
66 0 -6 298 c-6 261 -20 467 -43 640 l-7 52 325 0 325 0 5 -32 c3 -18 34 -232
69 -476 l63 -444 35 7 c90 15 91 15 91 43 -1 15 -29 224 -64 465 l-62 437 33
0 33 0 0 65 0 65 -43 0 -42 0 -84 588 c-45 323 -85 597 -88 610 -6 24 -13 25
-82 11z M30121 4459 c-24 -5 -46 -11 -49 -13 -2 -3 34 -268 82 -588 47 -321
86 -589 86 -595 0 -10 -72 -13 -324 -13 l-324 0 -7 43 c-30 189 -97 482 -145
637 -17 57 -20 93 -20 283 l0 217 -70 0 -70 0 0 -218 c0 -194 2 -225 20 -278
70 -202 167 -673 140 -682 -5 -2 -10 -32 -10 -68 0 -57 2 -64 20 -64 12 0 21
-8 25 -22 17 -82 54 -685 55 -900 l0 -68 67 0 66 0 -6 298 c-6 261 -20 467
-43 640 l-7 52 325 0 325 0 5 -32 c3 -18 34 -232 69 -476 l63 -444 35 7 c90
15 91 15 91 43 -1 15 -29 224 -64 465 l-62 437 33 0 33 0 0 65 0 65 -43 0 -42
0 -84 588 c-45 323 -85 597 -88 610 -6 24 -13 25 -82 11z M17445 4323 c-11 -3
-76 -23 -145 -45 -408 -131 -810 -354 -935 -520 -105 -139 -85 -204 153 -506
165 -210 391 -594 501 -853 47 -110 50 -143 20 -243 -35 -119 -158 -445 -211
-556 -56 -121 -81 -150 -152 -181 -47 -21 -69 -24 -263 -27 l-213 -4 0 -64 0
-64 186 0 c211 0 284 12 379 63 56 30 62 37 109 126 65 124 224 506 282 677
l46 136 -21 63 c-47 144 -280 611 -390 781 -25 39 -97 147 -160 240 -111 164
-171 272 -171 306 0 36 459 338 514 338 30 0 136 40 336 126 108 46 201 84
207 84 7 0 5 22 -5 65 -16 67 -19 69 -67 58z M6561 4188 l-43 -20 7 -91 c3
-51 13 -146 20 -212 8 -65 12 -122 9 -124 -3 -3 -60 -8 -127 -11 -108 -4 -122
-7 -121 -22 0 -10 1 -33 2 -51 l2 -33 120 15 c66 8 123 12 126 9 3 -3 23 -223
45 -489 50 -621 63 -678 164 -729 43 -22 63 -25 151 -25 93 0 104 2 138 26 38
27 116 125 115 143 0 6 -13 21 -28 33 l-28 22 -39 -55 c-47 -65 -90 -88 -150
-81 -79 8 -157 92 -190 202 -13 45 -84 829 -84 931 l0 41 103 11 c56 6 187 14
290 18 l188 6 -3 36 c-3 32 -7 37 -38 44 -19 5 -98 11 -175 14 -130 6 -148 4
-253 -21 -62 -15 -116 -24 -120 -21 -3 4 -8 108 -10 232 -3 158 -8 224 -16
223 -6 0 -31 -10 -55 -21z M12001 4188 l-43 -20 7 -91 c3 -51 13 -146 20 -212
8 -65 12 -122 9 -124 -3 -3 -60 -8 -127 -11 -108 -4 -122 -7 -121 -22 0 -10 1
-33 2 -51 l2 -33 120 15 c66 8 123 12 126 9 3 -3 23 -223 45 -489 50 -621 63
-678 164 -729 43 -22 63 -25 151 -25 93 0 104 2 138 26 38 27 116 125 115 143
0 6 -13 21 -28 33 l-28 22 -39 -55 c-47 -65 -90 -88 -150 -81 -79 8 -157 92
-190 202 -13 45 -84 829 -84 931 l0 41 103 11 c56 6 187 14 290 18 l188 6 -3
36 c-3 32 -7 37 -38 44 -19 5 -98 11 -175 14 -130 6 -148 4 -253 -21 -62 -15
-116 -24 -120 -21 -3 4 -8 108 -10 232 -3 158 -8 224 -16 223 -6 0 -31 -10
-55 -21z M9952 4132 c-74 -27 -109 -63 -132 -140 -22 -72 -55 -297 -45 -312 3
-6 24 -10 46 -10 l39 0 0 63 c0 79 32 206 65 264 27 45 68 73 108 73 35 0 138
-54 191 -101 83 -73 90 -96 94 -311 5 -233 -6 -338 -58 -548 -41 -165 -159
-586 -186 -662 -8 -22 -14 -44 -14 -48 0 -4 107 -10 238 -14 130 -4 261 -9
290 -12 l52 -6 0 57 0 57 -235 -7 -236 -7 22 53 c54 133 140 403 159 496 36
180 53 376 54 603 l1 215 -34 69 c-39 80 -134 182 -201 216 -61 31 -150 36
-218 12z M25495 4106 l-140 -21 3 -55 c2 -30 7 -102 13 -160 5 -58 9 -531 9
-1052 l0 -948 70 0 71 0 -3 165 -3 165 141 0 c126 0 142 -2 147 -17 53 -193
181 -630 186 -635 6 -7 131 23 131 32 0 3 -40 142 -89 310 l-89 305 37 11 c95
29 142 74 167 160 23 80 15 1227 -10 1351 -44 226 -153 354 -337 398 -82 19
-132 18 -304 -9z m236 -125 c36 -5 82 -16 102 -26 49 -23 103 -80 132 -140 54
-109 57 -152 62 -779 4 -516 3 -584 -12 -621 -30 -80 -29 -80 -276 -83 l-219
-4 -2 499 c-2 274 -1 599 1 723 2 177 0 245 -13 319 -10 51 -14 96 -11 99 17
18 146 24 236 13z M7545 4088 c-7 -23 -138 -1471 -158 -1748 -2 -34 -1 -35 39
-38 l42 -3 7 118 c4 65 11 152 15 193 33 328 42 418 46 439 3 14 21 40 40 58
42 40 86 43 154 12 125 -57 134 -93 120 -499 -5 -156 -6 -287 -2 -291 4 -4 21
-10 38 -13 l31 -7 6 78 c3 43 11 132 18 198 14 148 7 381 -15 451 -12 40 -28
61 -78 105 -35 31 -78 61 -97 67 -42 15 -130 16 -167 2 -15 -6 -29 -9 -31 -6
-5 4 60 775 72 859 l5 37 -40 0 c-24 0 -42 -5 -45 -12z M12975 4088 c-7 -23
-138 -1471 -158 -1748 -2 -34 -1 -35 39 -38 l42 -3 7 118 c4 65 11 152 15 193
33 328 42 418 46 439 3 14 21 40 40 58 42 40 86 43 154 12 125 -57 134 -93
120 -499 -5 -156 -6 -287 -2 -291 4 -4 21 -10 38 -13 l31 -7 6 78 c3 43 11
132 18 198 14 148 7 381 -15 451 -12 40 -28 61 -78 105 -35 31 -78 61 -97 67
-42 15 -130 16 -167 2 -15 -6 -29 -9 -31 -6 -5 4 60 775 72 859 l5 37 -40 0
c-24 0 -42 -5 -45 -12z M11428 4055 c-2 -3 0 -37 5 -76 5 -39 7 -73 4 -75 -2
-3 -42 0 -88 6 -108 13 -243 13 -294 -1 -59 -16 -167 -92 -228 -159 -105 -117
-143 -235 -133 -425 9 -206 56 -337 152 -424 59 -54 151 -103 224 -120 105
-24 290 -6 396 39 l41 18 6 -148 c3 -82 3 -243 0 -359 l-6 -211 53 0 53 0 -7
88 c-4 48 -11 348 -16 667 -6 319 -14 646 -19 726 -9 137 -44 410 -57 444 -6
14 -73 22 -86 10z m-58 -233 l85 -7 16 -180 c21 -217 39 -520 39 -630 l0 -80
-87 -35 c-83 -33 -92 -35 -207 -34 -131 0 -180 11 -235 52 -45 34 -123 155
-163 255 -30 77 -32 90 -33 207 0 122 1 127 33 191 18 36 52 88 75 116 53 65
144 140 177 146 37 7 203 6 300 -1z M8465 3756 c-150 -48 -253 -172 -290 -352
-37 -182 -48 -536 -21 -676 39 -198 124 -337 275 -452 170 -129 296 -166 566
-166 264 0 359 21 450 101 39 34 115 142 115 163 0 10 -72 36 -99 36 -5 0 -12
-14 -16 -31 -15 -69 -107 -136 -215 -157 -97 -19 -289 -35 -368 -30 -43 3
-106 15 -142 27 -94 32 -261 115 -287 143 -54 57 -206 340 -191 353 2 1 156
69 343 151 319 139 346 152 442 225 116 88 132 98 223 128 102 34 100 28 53
123 -100 200 -290 353 -507 408 -92 23 -267 26 -331 6z m268 -97 c166 -55 333
-145 394 -210 27 -30 93 -139 93 -154 0 -7 -33 -24 -72 -40 -92 -36 -205 -92
-305 -151 -43 -26 -197 -105 -343 -175 l-265 -128 -7 67 c-26 255 -20 348 29
487 53 148 163 286 256 318 65 23 121 20 220 -14z M27200 3759 c-197 -21 -366
-89 -475 -190 -105 -99 -156 -213 -196 -436 -27 -148 -38 -555 -20 -685 45
-314 172 -568 394 -790 296 -296 695 -463 1155 -485 l132 -6 0 66 c0 61 -2 67
-22 71 -13 3 -63 12 -113 21 -376 69 -796 327 -1105 680 -162 185 -271 371
-304 522 -27 122 -17 327 25 493 25 100 106 260 170 338 106 128 263 226 409
256 143 29 414 49 585 43 397 -14 683 -109 929 -307 l88 -72 39 38 c21 21 39
43 39 49 0 5 -22 29 -49 52 -161 139 -358 235 -580 283 -245 53 -846 85 -1101
59z M20360 3259 c-81 -7 -264 -50 -279 -65 -2 -2 8 -31 24 -64 22 -46 33 -59
44 -54 93 39 141 47 356 54 121 5 367 9 547 9 209 1 329 5 333 11 4 6 1 35 -5
65 l-11 55 -457 -1 c-251 -1 -500 -6 -552 -10z"/>
</g>
</svg>
