<?xml version="1.0" standalone="no"?>
<!DOCTYPE svg PUBLIC "-//W3C//DTD SVG 20010904//EN"
 "http://www.w3.org/TR/2001/REC-SVG-20010904/DTD/svg10.dtd">
<svg version="1.0" xmlns="http://www.w3.org/2000/svg"
 width="720.000000pt" height="120.000000pt" viewBox="0 0 720.000000 120.000000"
 preserveAspectRatio="xMidYMid meet">
<metadata>
Created by potrace 1.15, written by Peter Selinger 2001-2017
</metadata>
<g transform="translate(0.000000,120.000000) scale(0.012500,-0.012500)"
fill="#780000" stroke="none">
<path d="M53754 8573 c11 -56 27 -453 24 -623 l-3 -175 -437 -3 c-241 -1 -438
1 -438 5 0 4 19 54 41 112 37 93 166 450 172 475 1 5 -40 22 -92 37 -105 32
-111 31 -111 -32 0 -139 -199 -640 -365 -925 -107 -182 -310 -462 -384 -528
-30 -27 -26 -43 12 -55 19 -7 54 -25 80 -40 l45 -29 64 81 c145 183 292 415
399 628 l59 119 480 0 480 0 -2 -437 -3 -438 -460 0 c-253 0 -504 3 -557 8
l-98 7 0 -96 c0 -96 0 -96 23 -88 12 4 264 9 560 11 l537 4 -2 -538 -3 -538
-585 -3 c-522 -2 -883 7 -987 25 l-33 5 0 -102 0 -101 83 8 c45 4 755 8 1577
8 822 0 1532 -4 1578 -8 l82 -8 0 102 0 102 -42 -7 c-105 -18 -385 -25 -920
-26 l-578 0 0 541 0 540 573 -4 c314 -2 582 -7 595 -11 22 -8 22 -8 22 89 l0
97 -37 -7 c-21 -3 -289 -9 -595 -12 l-558 -5 0 442 0 442 653 -6 c358 -3 673
-8 700 -11 l47 -7 0 97 0 97 -47 -6 c-27 -4 -342 -9 -702 -12 l-653 -6 5 379
c3 208 9 395 13 416 l6 37 -112 0 -112 0 6 -27z M38494 8538 c12 -67 25 -339
26 -501 l0 -148 -702 5 c-387 3 -727 8 -755 11 l-53 7 0 -97 0 -97 63 6 c87 8
1357 19 1357 12 0 -13 -130 -266 -181 -352 -309 -526 -832 -1083 -1265 -1349
-43 -27 -81 -51 -84 -53 -3 -2 6 -13 20 -23 14 -11 48 -42 75 -68 l50 -49 116
87 c402 299 805 731 1088 1166 78 119 189 331 242 462 18 46 33 82 33 80 1 -1
-1 -335 -4 -742 l-5 -740 -305 0 c-168 0 -342 3 -387 7 l-83 7 0 -90 0 -91 28
7 c15 4 190 9 390 12 l362 5 0 -164 c-1 -183 -16 -561 -26 -625 l-7 -43 108 0
107 0 -6 48 c-4 26 -9 213 -12 415 l-6 369 378 -5 c209 -3 391 -8 407 -12 l27
-7 0 92 0 92 -32 -6 c-18 -4 -201 -9 -405 -13 l-373 -6 -1 584 c-1 321 -4 656
-8 744 -4 88 -5 162 -4 164 2 2 13 -20 25 -50 88 -217 260 -511 412 -709 289
-374 629 -698 999 -951 l119 -81 16 23 c9 13 40 49 69 80 l54 57 -123 73
c-264 158 -434 294 -694 553 -273 273 -450 496 -613 771 -84 141 -181 318
-181 330 0 8 1339 -2 1443 -11 l67 -6 0 97 0 97 -47 -7 c-27 -3 -383 -9 -792
-11 l-743 -5 6 303 c3 167 8 322 12 346 l6 42 -107 0 -108 0 7 -42z M47315
8523 c3 -27 9 -523 11 -1104 l5 -1057 -593 -146 c-598 -147 -770 -186 -833
-186 -18 0 -37 -5 -40 -10 -7 -11 14 -161 24 -172 3 -4 52 9 108 27 86 29
1297 335 1325 335 11 0 3 -903 -8 -992 l-6 -48 102 0 102 0 -6 43 c-4 23 -9
267 -12 543 l-6 500 144 32 c78 18 183 40 233 48 49 9 92 17 94 20 5 4 -17
165 -23 171 -2 3 -37 -7 -78 -22 -40 -15 -140 -44 -221 -65 l-148 -39 5 1042
c2 573 7 1061 11 1085 l7 42 -102 0 -102 0 7 -47z M50996 8466 c-69 -132 -151
-254 -258 -386 -46 -57 -89 -111 -97 -121 -12 -18 -31 -19 -246 -19 l-232 0
-28 73 c-73 185 -259 547 -282 547 -14 0 -145 -31 -151 -36 -2 -1 26 -52 62
-113 94 -158 226 -428 226 -462 0 -5 -129 -9 -307 -9 l-308 1 -70 112 c-69
111 -285 406 -322 440 -19 17 -23 16 -89 -4 -38 -11 -72 -24 -76 -28 -4 -4 18
-36 49 -71 140 -161 323 -412 323 -444 0 -10 -645 -1 -693 10 l-27 6 7 -58
c10 -82 10 -548 0 -666 l-8 -98 85 0 86 0 0 335 0 335 1390 0 1390 0 0 -335 0
-335 85 0 85 0 -7 88 c-8 93 -11 553 -4 662 4 64 4 65 -20 63 -70 -7 -739 -15
-739 -9 0 4 31 44 68 89 93 111 145 180 241 321 l81 119 -33 22 c-17 12 -53
34 -78 49 l-47 27 -56 -105z M45835 8544 c-39 -30 -182 -97 -287 -135 -193
-69 -589 -155 -854 -184 l-61 -7 45 -67 c24 -36 45 -67 47 -69 5 -6 405 67
508 93 l27 7 0 -302 0 -303 -272 7 c-150 3 -292 9 -315 12 l-43 6 0 -87 0 -87
43 6 c23 3 160 8 304 12 l262 7 -21 -74 c-98 -350 -351 -840 -572 -1107 -34
-41 -72 -87 -85 -103 l-24 -29 54 -58 c30 -31 57 -57 61 -57 4 0 32 32 63 70
225 278 449 721 550 1085 l15 55 -6 -55 c-3 -30 -10 -478 -15 -995 -4 -517
-11 -959 -15 -982 l-6 -43 102 0 c102 0 102 0 95 23 -4 12 -11 407 -15 877 -5
470 -11 929 -14 1020 l-7 165 40 -82 c77 -160 182 -302 340 -458 l81 -79 17
24 c10 14 33 42 52 63 l35 39 -44 36 c-144 117 -272 262 -384 434 -50 76 -116
205 -116 224 0 8 486 -2 523 -12 l27 -6 0 87 0 87 -27 -7 c-16 -3 -139 -9
-276 -12 l-247 -5 2 321 3 321 193 65 c180 61 352 131 352 143 0 12 -96 131
-105 131 -5 0 -19 -7 -30 -15z M6735 8536 c-44 -19 -94 -75 -107 -119 -11 -37
-18 -42 -122 -91 -573 -271 -960 -769 -1086 -1398 l-11 -57 -67 26 c-203 78
-486 147 -737 179 -157 20 -531 23 -685 5 -603 -69 -1124 -280 -1601 -648
-146 -113 -419 -386 -532 -532 -368 -477 -577 -993 -648 -1601 -15 -134 -16
-503 0 -640 78 -687 363 -1317 816 -1800 382 -407 821 -686 1340 -853 660
-211 1414 -192 2048 53 l104 40 45 -19 c76 -32 324 -110 433 -136 579 -137
1173 -108 1740 85 954 326 1701 1109 1980 2080 191 664 159 1369 -92 2010 -88
224 -256 526 -408 732 l-27 37 26 78 c106 320 125 675 56 1012 -25 117 -86
300 -138 414 -197 424 -577 789 -1004 962 -73 30 -85 38 -101 72 -42 86 -109
127 -198 121 -102 -7 -170 -75 -177 -178 -6 -77 23 -140 81 -178 35 -23 51
-27 113 -27 67 0 75 2 114 34 l41 33 47 -17 c26 -10 79 -34 117 -53 496 -245
848 -705 955 -1248 28 -138 38 -401 21 -541 -48 -390 -212 -738 -480 -1016
-451 -469 -1094 -650 -1731 -487 -184 47 -403 150 -570 268 -122 86 -326 290
-412 412 -140 197 -244 437 -295 679 -24 113 -27 148 -27 336 -1 214 6 280 46
440 126 508 479 940 950 1165 l107 51 42 -28 c37 -24 52 -28 115 -28 65 0 76
3 111 31 120 95 105 266 -29 335 -43 22 -119 24 -163 5z m-2131 -1622 c252
-31 490 -91 729 -184 l57 -23 0 -68 c0 -38 -4 -69 -9 -69 -5 0 -33 11 -62 24
-30 13 -103 40 -162 60 -684 230 -1428 195 -2080 -99 -539 -243 -1006 -670
-1296 -1183 -22 -41 -41 -76 -41 -78 0 -2 930 -4 2068 -4 l2067 -1 105 -99
104 -100 -2221 0 -2221 0 -22 -52 c-25 -57 -110 -312 -110 -328 0 -6 940 -11
2713 -13 2628 -3 2715 -4 2807 -23 l94 -19 13 -60 c46 -224 57 -337 57 -615 0
-234 -3 -296 -22 -420 -83 -536 -286 -1008 -613 -1422 -105 -132 -345 -372
-477 -477 -422 -333 -898 -535 -1457 -617 -169 -25 -589 -25 -764 -1 -818 115
-1511 525 -2001 1182 -561 754 -724 1752 -433 2660 432 1348 1770 2203 3177
2029z m4539 -1342 c343 -536 510 -1202 457 -1822 -60 -698 -339 -1322 -817
-1821 -723 -755 -1798 -1071 -2823 -828 -47 11 -136 36 -199 55 l-113 35 108
61 c863 479 1446 1337 1579 2323 23 171 30 480 15 650 -10 124 -41 340 -56
400 -5 21 -2 22 118 28 274 14 500 73 753 197 230 113 432 267 596 453 88 100
203 265 250 359 l30 60 30 -41 c16 -23 49 -71 72 -109z M1460 4493 c0 -5 -7
-51 -15 -103 -8 -52 -18 -143 -21 -202 l-7 -108 2827 0 2827 0 -6 78 c-8 92
-34 300 -41 325 -5 16 -146 17 -2785 17 -1528 0 -2779 -3 -2779 -7z M1424
3773 c6 -111 31 -297 41 -314 4 -5 1089 -9 2780 -9 l2774 0 10 53 c11 55 25
173 36 300 l7 77 -2828 0 -2827 0 7 -107z M1516 3223 c9 -38 89 -269 108 -315
l16 -38 2603 0 2603 0 33 84 c35 92 91 263 91 284 0 9 -553 12 -2730 12
l-2730 0 6 -27z M1744 2654 c12 -32 115 -200 178 -291 195 -283 500 -577 793
-765 831 -535 1913 -592 2793 -149 517 260 962 693 1231 1199 l12 22 -2507 0
c-2313 0 -2506 -1 -2500 -16z M43915 8438 c-40 -5 -707 -7 -1538 -6 -1301 3
-1466 1 -1460 -12 4 -8 9 -649 11 -1425 3 -1310 -2 -1713 -24 -1792 -6 -23 -5
-23 90 -23 l96 0 0 95 0 96 1463 -4 c923 -2 1480 -7 1510 -14 l47 -10 0 100 0
99 -37 -7 c-21 -4 -701 -10 -1510 -12 l-1473 -4 0 1381 0 1381 1408 -5 c774
-2 1435 -8 1470 -11 l62 -7 0 96 c0 110 12 101 -115 84z M33628 8317 c10 -72
9 -2880 -1 -2994 l-8 -93 96 0 95 0 0 130 0 130 1025 0 1025 0 0 -130 0 -130
96 0 95 0 -8 88 c-10 107 -11 2926 -1 2999 l7 52 -97 -7 c-127 -9 -2073 -9
-2219 0 l-112 7 7 -52z m2232 -692 l0 -575 -1025 0 -1025 0 0 575 0 575 1025
0 1025 0 0 -575z m-2 -1352 l2 -633 -1025 0 -1025 0 0 628 c0 346 3 632 7 635
3 4 464 6 1022 5 l1016 -3 3 -632z M29350 8264 l0 -96 43 6 c23 4 303 9 621
12 l579 6 -6 -311 c-3 -171 -9 -317 -13 -323 -5 -8 -116 -9 -423 -5 -229 4
-446 10 -484 14 l-67 6 7 -129 c10 -166 10 -2001 0 -2116 l-7 -88 90 0 90 0 0
145 0 145 1245 0 1245 0 0 -145 0 -145 90 0 90 0 -7 88 c-10 116 -10 1962 0
2121 l8 124 -68 -6 c-37 -4 -272 -10 -520 -14 l-453 -6 0 322 0 323 603 -6
c331 -2 621 -8 645 -11 l42 -7 0 96 0 95 -67 -7 c-91 -9 -3119 -9 -3210 1
l-73 7 0 -96z m1898 -391 l-3 -318 -254 -3 -254 -2 6 157 c4 87 7 231 7 321
l0 162 250 0 250 0 -2 -317z m-688 -495 c0 -54 -39 -277 -65 -373 -50 -186
-118 -316 -223 -427 -95 -100 -163 -150 -345 -252 l-47 -27 31 -31 c17 -18 42
-49 56 -70 l25 -37 47 26 c301 173 508 427 600 739 30 104 67 297 78 416 l6
68 263 0 263 0 3 -454 c3 -514 -3 -478 88 -520 40 -18 69 -21 277 -24 317 -6
398 10 454 88 28 38 48 131 55 252 7 102 6 108 -12 108 -10 0 -43 11 -73 25
-30 14 -56 23 -59 21 -2 -3 -8 -66 -12 -140 -9 -155 -19 -179 -77 -195 -21 -6
-125 -11 -231 -11 -154 0 -199 3 -222 15 l-30 16 0 409 0 410 430 0 430 0 0
-865 0 -865 -1245 0 -1245 0 0 865 0 865 390 0 390 0 0 -32z M46297 8212 l-56
-57 62 -40 c193 -125 379 -284 533 -456 59 -66 110 -118 114 -117 12 4 90 106
90 116 0 5 -51 63 -112 128 -152 158 -302 286 -524 446 l-50 37 -57 -57z
M41982 8058 c-42 -153 -184 -415 -325 -602 -33 -45 -103 -124 -155 -178 -83
-85 -91 -97 -73 -103 11 -3 43 -22 70 -41 l50 -34 77 88 c89 101 212 264 257
340 l32 52 307 0 308 0 0 -102 c0 -111 -13 -280 -31 -421 l-12 -88 -574 3
-573 3 0 -89 c0 -80 2 -87 18 -80 9 5 259 10 555 12 l539 4 -7 -34 c-24 -111
-125 -300 -220 -407 -159 -181 -436 -353 -735 -456 -57 -20 -106 -37 -108 -40
-2 -2 14 -26 35 -53 21 -27 43 -58 49 -68 10 -17 15 -16 95 15 261 102 542
269 695 413 161 153 256 304 339 546 3 7 34 -44 69 -113 85 -165 158 -266 286
-395 190 -192 413 -319 813 -464 l97 -35 11 22 c6 12 29 45 50 74 43 58 45 63
25 63 -23 0 -294 89 -386 127 -380 157 -637 388 -791 710 -21 45 -39 85 -39
88 0 9 1217 -1 1258 -10 l32 -7 0 97 c0 97 0 97 -22 89 -13 -4 -322 -9 -687
-11 l-664 -4 7 58 c13 122 25 273 32 412 l7 143 496 -6 c273 -3 513 -8 534
-12 l38 -6 -3 88 c-3 74 -6 88 -18 84 -8 -3 -403 -6 -878 -8 l-863 -3 32 63
c28 55 139 299 139 305 0 1 -32 12 -71 23 -39 12 -77 24 -83 26 -7 2 -20 -29
-34 -78z M21094 7615 c-7 -19 -21 -51 -29 -71 -21 -51 -130 -215 -204 -307
-35 -42 -94 -103 -132 -134 -38 -31 -69 -59 -68 -62 0 -4 20 -21 45 -38 l44
-33 81 83 c44 45 113 124 151 175 l71 92 98 0 98 0 56 -94 c30 -51 68 -123 84
-160 l30 -66 46 22 c25 12 45 26 45 32 0 12 -40 82 -103 179 -27 43 -47 80
-44 83 3 3 105 2 226 -3 l221 -8 0 55 0 55 -345 -3 c-190 -2 -345 -1 -345 3 0
3 23 44 50 91 28 47 50 87 50 89 0 5 -96 55 -105 55 -3 0 -13 -16 -21 -35z
M22061 7628 c-41 -105 -58 -143 -93 -208 -51 -95 -112 -181 -200 -281 -39 -44
-66 -79 -60 -79 5 0 26 -11 45 -25 l37 -24 61 72 c33 40 86 109 116 155 l57
82 127 0 128 0 40 -59 c22 -33 64 -104 94 -160 l53 -100 45 26 c24 14 46 27
48 29 2 2 -33 59 -78 127 -45 68 -81 127 -81 132 0 9 539 -2 578 -12 21 -5 22
-2 22 53 l0 59 -460 -3 c-253 -2 -460 -1 -460 2 0 2 20 45 45 94 25 49 45 92
45 96 0 6 -84 46 -96 46 -3 0 -8 -10 -13 -22z M26258 7435 c9 -79 9 -2076 0
-2137 l-8 -48 65 0 65 0 0 85 0 85 940 0 940 0 0 -85 0 -85 65 0 65 0 -8 48
c-9 61 -9 2058 0 2137 l7 60 -1069 0 -1069 0 7 -60z m2002 -980 l0 -935 -940
0 -940 0 0 935 0 935 940 0 940 0 0 -935z M26825 6460 l0 -465 490 0 490 0 -3
465 -2 465 -488 0 -487 0 0 -465z m865 0 l0 -370 -375 0 -375 0 0 370 0 370
375 0 375 0 0 -370z M23501 7464 c-148 -32 -281 -123 -363 -248 -39 -61 -105
-244 -95 -269 5 -12 88 -37 125 -37 14 0 20 16 30 68 49 269 275 414 585 374
134 -17 212 -51 288 -125 63 -62 84 -118 84 -227 0 -86 -3 -101 -32 -162 -54
-115 -133 -186 -422 -382 -227 -154 -288 -202 -406 -321 -179 -180 -249 -320
-289 -577 l-13 -88 56 8 c74 9 1115 9 1209 -1 l72 -7 0 72 0 73 -586 -3 -587
-4 8 39 c28 150 150 348 291 469 67 58 208 159 404 291 237 159 330 245 391
365 45 88 62 235 38 337 -39 171 -184 301 -390 351 -101 24 -298 26 -398 4z
M25070 7465 c-254 -51 -427 -214 -490 -461 -24 -94 -26 -256 -5 -359 22 -105
84 -222 156 -294 225 -225 659 -226 903 -1 33 30 77 82 99 115 l39 60 -6 -125
c-24 -455 -176 -739 -431 -805 -33 -8 -101 -15 -156 -15 -205 0 -341 80 -415
246 -15 32 -28 60 -29 61 -2 4 -129 -47 -137 -55 -4 -4 14 -43 39 -87 114
-197 296 -295 546 -295 296 1 527 168 630 455 59 167 88 360 88 602 0 294 -30
464 -106 618 -136 274 -412 403 -725 340z m293 -132 c146 -42 271 -162 327
-311 113 -302 -38 -609 -344 -697 -86 -25 -241 -23 -328 4 -128 41 -236 146
-286 280 -34 92 -42 259 -17 367 47 197 200 336 413 374 60 11 167 3 235 -17z
M48990 7315 c0 -86 0 -87 23 -79 31 11 1894 17 1882 6 -29 -26 -183 -137 -275
-198 -133 -88 -238 -149 -391 -224 -118 -58 -124 -60 -202 -60 l-79 0 7 -156
7 -155 -763 3 c-420 2 -772 7 -781 12 -17 7 -18 0 -18 -89 0 -89 1 -96 18 -89
9 5 360 10 780 12 l763 3 -3 -450 -3 -450 -23 -23 c-22 -22 -28 -23 -200 -22
-97 1 -244 9 -326 18 -81 9 -150 15 -153 12 -2 -2 2 -17 11 -34 8 -16 20 -50
27 -76 6 -25 15 -48 18 -51 4 -2 119 -9 257 -16 370 -18 477 1 526 94 23 42
23 46 26 520 l3 478 762 -3 c419 -2 770 -7 780 -12 16 -7 17 0 17 89 0 89 -1
96 -17 89 -10 -5 -361 -10 -780 -12 l-763 -3 0 85 0 84 175 91 c207 107 393
217 530 314 107 76 335 257 335 267 0 3 -24 29 -52 57 l-53 51 -125 -10 c-133
-10 -1795 -3 -1887 8 l-53 6 0 -87z M46182 7267 c-29 -29 -52 -56 -52 -60 0
-4 26 -24 58 -44 179 -114 390 -289 539 -449 l98 -105 49 61 48 60 -68 77
c-120 134 -311 294 -555 466 l-65 46 -52 -52z M6385 7249 c-132 -16 -250 -103
-307 -224 -16 -36 -28 -71 -25 -79 3 -7 27 -17 52 -21 26 -3 53 -9 59 -11 6
-2 19 19 30 48 23 66 106 152 163 167 180 50 343 -59 343 -229 0 -137 -37
-188 -396 -550 l-294 -297 0 -66 0 -67 420 0 420 0 0 60 0 60 -344 0 -343 0
277 278 c355 354 395 414 395 587 -1 94 -28 165 -90 234 -44 49 -140 97 -210
106 -27 3 -59 7 -70 9 -11 2 -47 0 -80 -5z M7332 7248 c-135 -15 -266 -106
-317 -219 -94 -211 -14 -457 179 -545 96 -44 251 -48 327 -8 17 8 32 14 34 12
1 -2 -78 -127 -176 -278 -98 -151 -178 -278 -178 -282 -1 -5 32 -8 72 -8 l73
0 185 297 c211 341 253 423 276 528 14 65 15 89 5 158 -35 239 -225 376 -480
345z m197 -139 c102 -51 153 -141 153 -267 0 -144 -86 -255 -219 -282 -138
-29 -263 26 -326 144 -18 34 -22 57 -22 141 0 84 4 107 22 141 76 143 246 196
392 123z M20860 6892 l0 -57 450 3 450 4 0 -162 0 -162 -394 3 -394 4 -6 -63
c-11 -102 -62 -285 -119 -427 l-54 -133 59 -7 c33 -4 61 -6 63 -4 2 2 14 31
27 64 l24 60 357 3 c196 1 357 -1 357 -6 0 -10 -78 -85 -161 -154 -197 -164
-521 -334 -797 -418 l-70 -21 36 -50 c29 -38 41 -47 57 -43 71 21 272 107 391
169 231 118 377 221 545 382 l86 83 7 -268 c4 -147 4 -280 2 -297 -3 -16 -8
-56 -11 -87 l-5 -58 71 0 71 0 -6 33 c-4 17 -10 191 -13 385 l-5 352 436 0
436 0 0 -48 c0 -57 -24 -256 -40 -328 -7 -32 -21 -61 -36 -75 -25 -23 -31 -24
-147 -22 -67 2 -161 9 -209 16 -49 8 -88 11 -88 8 1 -3 7 -28 14 -56 11 -41
18 -51 42 -58 16 -5 112 -9 214 -10 170 -2 188 0 220 19 75 44 99 116 130 403
11 97 22 192 25 211 l4 35 -504 -3 -505 -3 0 161 0 161 428 -3 427 -3 0 255 0
255 -900 0 c-495 0 -915 3 -932 7 l-33 8 0 -58z m1760 -212 l0 -160 -375 0
-375 0 0 160 0 160 375 0 375 0 0 -160z m-850 -410 l0 -160 -386 0 -386 0 5
23 c3 12 19 75 36 141 17 65 31 127 31 137 0 18 13 19 350 19 l350 0 0 -160z
M8167 6734 c-4 -4 -7 -189 -7 -411 l0 -403 40 0 40 0 0 163 c0 184 11 225 71
267 40 29 114 32 153 7 51 -34 59 -67 64 -259 l4 -178 35 0 35 0 -4 193 c-3
215 -13 250 -77 294 -69 47 -184 37 -246 -22 l-35 -32 -2 191 -3 191 -30 3
c-17 2 -34 0 -38 -4z M7910 6501 l0 -70 -52 -3 c-52 -3 -53 -4 -56 -35 l-3
-33 55 0 56 0 0 -180 c0 -203 6 -228 62 -251 32 -13 119 -16 138 -4 6 3 10 19
10 34 0 28 -1 28 -49 23 -40 -3 -52 -1 -70 17 -20 20 -21 31 -21 191 l0 170
70 0 70 0 0 35 0 35 -70 0 -70 0 0 70 0 70 -35 0 -35 0 0 -69z M51938 4358
c-32 -17 -58 -35 -58 -40 0 -5 20 -35 44 -67 68 -88 195 -286 260 -404 32 -59
61 -107 63 -107 5 0 121 68 132 77 17 13 -353 574 -378 573 -4 0 -32 -15 -63
-32z M18346 4258 c-2 -7 -11 -42 -20 -78 -44 -169 -229 -566 -363 -781 -43
-69 -115 -172 -158 -230 -80 -105 -298 -332 -410 -426 l-60 -50 30 -16 c17 -8
51 -34 78 -57 l47 -42 48 40 c160 136 374 392 546 655 l78 117 554 0 554 0 0
-28 c0 -62 -32 -354 -50 -467 -49 -288 -134 -534 -253 -725 -196 -314 -557
-610 -941 -771 -55 -24 -103 -44 -105 -46 -3 -2 13 -22 36 -46 32 -33 61 -75
79 -115 1 -2 66 31 145 74 455 244 713 462 922 779 122 185 223 434 272 673
26 122 59 392 71 570 l7 103 528 -3 529 -3 0 94 0 93 -37 -7 c-45 -9 -2223
-19 -2223 -10 0 3 11 22 23 43 25 39 81 160 162 347 26 61 63 141 82 178 l34
68 -33 13 c-78 33 -162 66 -165 66 -2 0 -5 -6 -7 -12z M24958 4208 c9 -81 9
-2881 0 -2970 l-7 -68 116 0 116 0 -7 52 c-3 29 -9 439 -13 912 l-6 859 44
-26 c24 -14 114 -53 199 -87 405 -163 829 -384 1195 -624 150 -98 131 -101
200 30 34 64 38 77 25 84 -8 6 -118 68 -245 140 -420 238 -844 438 -1233 581
l-173 64 3 558 3 557 -112 0 -113 0 8 -62z M12598 3912 l5 -349 -744 -5 c-668
-5 -948 0 -1046 18 l-33 6 0 -102 0 -102 38 7 c45 8 1702 19 1702 10 0 -13
-107 -175 -183 -278 -229 -306 -597 -669 -942 -928 -199 -149 -365 -253 -595
-372 -85 -44 -157 -81 -158 -82 -2 -2 14 -19 35 -39 22 -19 48 -51 58 -70 11
-20 23 -36 27 -36 4 0 67 34 140 76 455 262 768 498 1119 841 280 275 448 484
542 675 28 59 56 107 61 107 4 1 5 -20 1 -46 -4 -27 -6 -329 -4 -673 2 -344 4
-804 4 -1023 l0 -397 103 0 c94 0 103 2 98 18 -2 9 -7 71 -11 137 -6 130 -36
2087 -31 2092 1 2 206 4 454 5 l452 2 0 89 0 90 -47 -7 c-27 -3 -231 -9 -454
-12 l-406 -7 -6 264 c-4 145 -5 280 -2 299 2 19 6 59 9 88 l5 52 -98 0 -97 0
4 -348z M51533 4164 c-35 -19 -63 -37 -63 -40 0 -2 22 -32 48 -67 110 -141
231 -333 298 -469 16 -32 32 -58 37 -58 7 0 109 57 135 75 6 5 -118 211 -211
350 -50 74 -176 245 -181 245 0 0 -29 -16 -63 -36z M54248 3828 c5 -471 -17
-2404 -27 -2431 -8 -19 -3 -32 26 -68 19 -24 43 -54 53 -67 18 -22 20 -22 48
-8 17 9 103 45 192 81 362 145 575 279 790 494 160 160 297 355 412 586 65
129 65 126 20 171 -20 21 -51 56 -68 77 l-30 39 -33 -89 c-165 -435 -480 -799
-861 -997 -88 -45 -290 -128 -339 -138 -11 -3 -13 82 -11 527 4 963 18 2059
28 2103 l9 42 -106 0 -106 0 3 -322z M53334 3722 c-3 -1010 -96 -1466 -391
-1907 -110 -164 -218 -276 -436 -456 -5 -3 15 -21 43 -39 28 -18 61 -46 74
-63 l24 -31 56 48 c31 26 98 93 150 149 256 276 378 473 491 798 114 325 147
610 175 1494 6 176 13 336 16 356 6 35 5 36 -32 42 -22 4 -68 7 -104 7 l-65 0
-1 -398z M27970 3987 l0 -104 66 9 c36 5 486 8 1000 6 l934 -3 0 98 0 98 -57
-8 c-74 -10 -1820 -11 -1890 0 l-53 8 0 -104z M42880 3976 l0 -106 78 8 c42 4
527 7 1077 7 550 0 1035 -3 1078 -7 l77 -8 0 106 c0 96 -2 105 -17 100 -65
-20 -299 -26 -1138 -26 -839 0 -1073 6 -1137 26 -16 5 -18 -4 -18 -100z
M49951 3845 c-60 -709 -311 -1467 -637 -1920 -71 -99 -234 -293 -302 -359
l-51 -49 44 -29 c24 -16 58 -45 75 -65 l32 -36 50 49 c27 27 84 89 125 139
372 440 606 964 763 1702 28 132 111 614 114 657 1 20 0 20 -170 51 l-30 5
-13 -145z M51112 3968 c-77 -18 -83 -22 -78 -41 4 -12 22 -113 41 -225 97
-565 209 -940 409 -1372 164 -355 353 -648 569 -884 l63 -70 75 76 74 76 -74
68 c-282 259 -562 748 -741 1294 -105 320 -211 807 -233 1064 -1 16 -6 30 -12
32 -5 1 -48 -7 -93 -18z M23035 3968 c-58 -20 -1728 -37 -1852 -19 l-53 7 0
-108 c0 -96 2 -108 18 -108 9 0 60 5 112 10 52 5 383 14 735 19 352 6 705 13
783 16 111 3 143 2 139 -8 -154 -356 -266 -565 -438 -817 -403 -592 -1061
-1166 -1625 -1420 -65 -29 -121 -55 -123 -56 -2 -2 16 -26 41 -52 25 -27 53
-63 62 -80 9 -18 19 -32 22 -32 22 0 393 216 539 314 310 207 631 480 838 713
55 62 103 113 108 113 9 0 254 -197 383 -309 274 -237 580 -546 777 -784 40
-48 76 -86 79 -85 15 6 150 138 150 147 0 15 -414 433 -578 584 -176 161 -376
332 -562 481 -69 55 -125 105 -124 111 1 5 62 100 136 210 215 317 330 521
473 835 22 47 55 112 75 146 l36 60 -57 62 c-31 34 -58 62 -60 61 -2 0 -17 -5
-34 -11z M41315 3968 c-39 -13 -1055 -30 -1535 -26 l-375 3 3 -100 c2 -55 5
-101 7 -103 2 -2 54 1 116 7 63 6 398 15 744 21 347 5 696 12 777 15 l146 5
-59 -136 c-193 -446 -463 -854 -803 -1214 -369 -391 -842 -742 -1226 -910 -52
-23 -97 -44 -99 -46 -2 -2 14 -23 35 -46 22 -24 50 -60 63 -80 12 -21 25 -38
27 -38 3 0 59 29 125 65 480 262 888 575 1230 943 68 72 126 132 129 132 6 0
160 -121 270 -213 277 -231 602 -547 795 -772 61 -71 124 -144 142 -164 l32
-36 77 77 77 77 -117 125 c-287 305 -618 609 -1011 926 -77 62 -140 118 -140
124 0 6 73 121 163 255 196 294 285 449 415 726 54 116 109 224 122 241 l24
31 -62 60 c-58 57 -64 60 -92 51z M32235 3901 c-3 -2 -5 -51 -5 -109 l0 -104
33 7 c17 4 557 10 1199 12 l1167 4 -31 -113 c-230 -863 -634 -1429 -1318
-1850 -220 -135 -379 -210 -613 -288 l-127 -42 30 -34 c16 -19 41 -57 55 -85
30 -58 10 -60 210 18 638 251 1233 740 1551 1275 161 272 279 551 390 927 30
102 62 203 71 224 l17 38 -60 60 -60 60 -65 -11 c-79 -14 -2291 -7 -2382 7
-32 5 -60 7 -62 4z M48225 3508 c-88 -125 -322 -351 -554 -536 -307 -245 -744
-499 -1095 -637 -100 -39 -337 -113 -449 -139 -28 -7 -28 -8 -13 -29 9 -12 28
-46 43 -74 15 -29 33 -53 41 -53 28 0 370 120 502 175 169 71 431 204 574 290
59 36 110 65 113 65 2 0 3 -333 1 -740 l-3 -740 99 0 98 0 -6 43 c-4 23 -9
382 -12 797 l-4 755 142 107 c191 143 349 279 552 478 l168 166 -75 57 c-42
31 -80 57 -84 57 -4 0 -21 -19 -38 -42z M27640 3131 l0 -96 1230 3 c680 1
1230 -1 1230 -6 0 -24 -138 -362 -190 -465 -216 -428 -568 -767 -1035 -997
-153 -76 -261 -116 -427 -159 -59 -15 -111 -30 -114 -33 -3 -4 7 -24 23 -45
16 -22 37 -59 47 -81 11 -23 24 -42 30 -42 19 0 235 75 330 114 323 135 631
331 869 555 70 66 214 242 284 347 127 189 212 361 325 654 32 85 68 170 79
188 l19 34 -51 64 c-47 58 -54 62 -73 51 -28 -16 -2418 -17 -2513 -1 l-63 11
0 -96z M42500 3053 l0 -98 747 3 746 3 -6 -133 c-14 -296 -78 -572 -183 -781
-139 -277 -433 -512 -829 -662 -55 -21 -102 -39 -104 -41 -2 -2 10 -20 27 -41
16 -21 40 -57 52 -80 12 -24 25 -43 29 -43 13 0 183 76 281 125 318 160 531
352 689 621 127 217 209 544 227 902 l7 133 689 -3 689 -3 -3 95 c-2 70 -6 94
-16 92 -78 -15 -525 -22 -1517 -22 -1057 1 -1448 7 -1506 25 -18 6 -19 0 -19
-92z M36030 2888 l0 -93 445 3 445 3 0 -676 0 -677 -527 5 c-291 3 -543 8
-560 12 l-33 7 0 -96 0 -95 98 7 c127 9 2113 9 2260 0 l112 -8 0 96 0 96 -37
-7 c-21 -4 -284 -9 -585 -12 l-548 -4 0 676 0 676 470 -3 470 -3 0 93 0 92
-82 -7 c-107 -10 -1725 -10 -1840 0 l-88 7 0 -92z M31165 2932 c-159 -74 -194
-274 -70 -395 109 -106 289 -83 370 47 27 44 30 58 30 126 0 68 -3 82 -30 126
-44 70 -109 108 -194 112 -49 2 -77 -2 -106 -16z M13990 2726 l0 -101 1540 0
1540 0 0 101 0 101 -47 -8 c-27 -4 -698 -8 -1493 -8 -795 0 -1466 4 -1492 8
l-48 8 0 -101z"/>
</g>
</svg>
